<svg width="70" height="20" viewBox="0 0 70 20" fill="none" xmlns="http://www.w3.org/2000/svg">
<g id="Group">
<path id="Vector" d="M43.4659 12.0308C40.043 12.0308 37.2676 13.7074 37.2676 15.7765C37.2676 17.8455 40.043 19.5222 43.4659 19.5222C46.8887 19.5222 49.6641 17.8455 49.6641 15.7765C49.6641 13.7074 46.8887 12.0308 43.4659 12.0308ZM43.4659 17.2034C41.6599 17.2034 40.1955 16.5649 40.1955 15.7765C40.1955 14.9881 41.6599 14.3495 43.4659 14.3495C45.2718 14.3495 46.7362 14.9881 46.7362 15.7765C46.7362 16.5649 45.2718 17.2034 43.4659 17.2034Z" fill="#958469"/>
<path id="Vector_2" d="M61.5694 12.0308C58.1465 12.0308 55.3711 13.7074 55.3711 15.7765C55.3711 17.8455 58.1465 19.5222 61.5694 19.5222C64.9922 19.5222 67.7676 17.8455 67.7676 15.7765C67.7676 13.7074 64.9922 12.0308 61.5694 12.0308ZM61.5694 17.2034C59.7634 17.2034 58.299 16.5649 58.299 15.7765C58.299 14.9881 59.7634 14.3495 61.5694 14.3495C63.3753 14.3495 64.8397 14.9881 64.8397 15.7765C64.8397 16.5649 63.3753 17.2034 61.5694 17.2034Z" fill="#958469"/>
<path id="Vector_3" d="M44.7533 7.50113C45.6648 7.46189 46.4844 7.38341 47.213 7.26657C47.9443 7.14885 49.6834 6.2588 49.6834 4.74089V0.477905H47.1657V2.16705H39.7653V0.477905H37.2476V4.74089C37.2476 6.2588 38.9867 7.14885 39.718 7.26657C40.3985 7.37627 41.1592 7.45119 41.9993 7.4931V8.94501H35.1357V11.0756H50.0125C50.998 11.0756 51.7962 10.2774 51.7962 9.29194V8.94501H44.7542V7.50202L44.7533 7.50113ZM39.7653 4.45729V3.84013H47.1657V4.45729C47.1657 4.92104 46.3078 5.34288 45.6211 5.41423C44.9344 5.48647 44.2155 5.52214 43.4655 5.52214C42.7155 5.52214 41.9967 5.48647 41.3099 5.41423C40.6232 5.34288 39.7653 4.92104 39.7653 4.45729Z" fill="#958469"/>
<path id="Vector_4" d="M62.8578 8.94412V7.50113C63.7693 7.46189 64.5889 7.38341 65.3175 7.26657C66.0488 7.14885 67.7879 6.2588 67.7879 4.74089V0.477905H65.2702V2.16705H57.8698V0.477905H55.3521V4.74089C55.3521 6.2588 57.0912 7.14885 57.8225 7.26657C58.503 7.37627 59.2637 7.45119 60.1038 7.4931V8.94501H53.2402V11.0756H68.117C69.1025 11.0756 69.9007 10.2774 69.9007 9.29194V8.94501H62.8587L62.8578 8.94412ZM57.8698 4.45729V3.84013H65.2702V4.45729C65.2702 4.92104 64.4123 5.34288 63.7256 5.41423C63.0389 5.48647 62.32 5.52214 61.57 5.52214C60.82 5.52214 60.1011 5.48647 59.4144 5.41423C58.7277 5.34288 57.8698 4.92104 57.8698 4.45729Z" fill="#958469"/>
<path id="Vector_5" d="M7.57611 1.15659C6.84123 0.704432 6.00023 0.477905 5.05399 0.477905C4.10775 0.477905 3.26675 0.704432 2.53187 1.15659C1.797 1.60876 1.22087 2.28209 0.80349 3.17482C0.38611 4.06844 0.266602 5.16095 0.266602 6.45411C0.266602 7.74728 0.38611 8.84245 0.80349 9.74232C1.22087 10.6413 1.79611 11.32 2.53187 11.7784C3.26675 12.2368 4.10686 12.466 5.05399 12.466C6.00112 12.466 6.84123 12.2368 7.57611 11.7784C8.31098 11.32 8.88711 10.6413 9.30449 9.74232C9.72187 8.84334 9.84137 7.74728 9.84137 6.45411C9.84137 5.16095 9.72187 4.06844 9.30449 3.17482C8.88711 2.28209 8.31098 1.60876 7.57611 1.15659ZM6.66465 9.22505C6.25619 9.85736 5.7193 10.1731 5.0531 10.1731C4.38689 10.1731 3.8509 9.85736 3.44244 9.22505C3.03398 8.59363 2.91269 7.67236 2.91269 6.46303C2.91269 5.2537 3.03308 4.34937 3.44244 3.71795C3.8509 3.08653 4.38779 2.76993 5.0531 2.76993C5.71841 2.76993 6.25529 3.08564 6.66465 3.71795C7.07311 4.35027 7.1944 5.26529 7.1944 6.46303C7.1944 7.66077 7.074 8.59274 6.66465 9.22505Z" fill="#958469"/>
<path id="Vector_6" d="M14.1346 0.477905H11.5117V17.7243H12.3509C13.3364 17.7243 14.1346 16.9261 14.1346 15.9406V6.74753H17.1455V4.55628H14.1346V0.478797V0.477905Z" fill="#958469"/>
<path id="Vector_7" d="M26.0761 11.7641C27.6627 11.7641 29.054 11.5233 30.4854 11.0684C31.1668 10.8517 31.7973 10.3371 32.0738 9.55856C32.2022 9.19648 32.1834 8.70686 32.1834 8.28948C32.1834 8.26183 32.162 8.24221 32.1406 8.25113C31.222 8.64799 29.895 9.56213 26.0761 9.56213C23.9197 9.56213 22.6194 8.73272 22.6158 8.10308C22.6158 8.10041 22.6158 8.09773 22.6158 8.09506V6.78584H30.3819C31.3674 6.78584 32.1656 5.98764 32.1656 5.00216V4.68823H22.6158V2.63255H30.3819C31.3674 2.63255 32.1656 1.83435 32.1656 0.848872V0.47876H19.9697V8.29037C19.9697 9.60494 21.0667 11.765 26.077 11.765L26.0761 11.7641Z" fill="#958469"/>
<path id="Vector_8" d="M33.286 13.827C33.005 13.7841 32.7196 13.8109 32.4432 13.884C30.5088 14.4004 28.3862 14.6581 26.0763 14.6564C23.7665 14.6573 21.6439 14.4004 19.7095 13.884C19.4339 13.81 19.1485 13.7841 18.8667 13.827C18.6081 13.8662 18.46 13.9474 18.3361 14.0918C18.1452 14.3148 18.0498 14.5761 18.0498 14.8766C18.0498 15.5616 18.6233 15.9165 18.9104 15.995C20.9768 16.622 23.3652 16.9341 26.0763 16.9332C28.7875 16.9341 31.1759 16.622 33.2423 15.995C33.5285 15.9165 34.1029 15.5616 34.1029 14.8766C34.1029 14.5761 34.0075 14.3148 33.8166 14.0918C33.6926 13.9474 33.5437 13.8662 33.2851 13.827H33.286Z" fill="#958469"/>
</g>
</svg>
