<svg width="22" height="26" viewBox="0 0 22 26" fill="none" xmlns="http://www.w3.org/2000/svg">
<g id="Group">
<path id="Vector" d="M6.40677 20.223V19.8627L6.05093 19.9189L5.69508 19.9751L5.33924 20.0313L4.9834 20.0874V20.4477V22.7032C4.9834 24.2461 6.23732 25.5009 7.77931 25.5009C7.92468 25.5009 8.07094 25.4893 8.21631 25.467L13.8643 24.5796C15.9334 24.2541 17.6537 23.4283 18.9772 22.1253C20.3845 20.7412 21.098 19.0975 21.098 17.2398C21.098 15.7843 20.6253 14.55 19.6925 13.5708C19.5765 13.4495 19.4544 13.3344 19.3277 13.2248C19.3696 13.1686 19.4107 13.1115 19.4508 13.0535C20.1643 12.0297 20.5255 10.8801 20.5255 9.63689C20.5255 9.29621 20.5005 8.96266 20.4523 8.64606C20.2222 7.14153 19.4767 5.95003 18.2361 5.10546C17.2185 4.4125 15.9655 4.06201 14.5136 4.06201C14.4565 4.06201 14.3985 4.06201 14.3406 4.0638C14.2211 4.06647 14.0989 4.07093 13.9758 4.07806C14.0026 4.19311 14.0266 4.31083 14.0463 4.43123C14.065 4.54717 14.0793 4.66489 14.09 4.78529C14.1007 4.90212 14.1078 5.02074 14.1123 5.14114C14.1149 5.21605 14.1176 5.29007 14.1176 5.36588C14.1176 5.40958 14.1158 5.45328 14.1149 5.49698C14.2362 5.49074 14.3548 5.48717 14.4708 5.48717C14.4841 5.48717 14.4993 5.48717 14.5127 5.48717C15.6739 5.48717 16.6567 5.75561 17.4343 6.28447C18.3351 6.89716 18.8764 7.76492 19.0441 8.86277C19.0816 9.10892 19.1012 9.36934 19.1012 9.63867C19.1012 10.5849 18.8256 11.4607 18.2816 12.2411C17.9284 12.7494 17.4986 13.1864 16.9991 13.5467C17.6493 13.7411 18.2067 14.0791 18.6642 14.5572C19.3349 15.2608 19.6746 16.1643 19.6746 17.2416C19.6746 18.7042 19.1048 20.0063 17.9793 21.1122C16.8716 22.2029 15.4125 22.8967 13.644 23.175L7.99603 24.0624C7.92468 24.074 7.85244 24.0793 7.7802 24.0793C7.02392 24.0793 6.40766 23.4631 6.40766 22.7059V20.2266" fill="#00C0F4"/>
<g id="Group_2">
<path id="Vector_2" d="M12.8425 4.19756C12.8621 4.19488 12.8817 4.19221 12.9013 4.18864C13.0199 4.1708 13.1386 4.15386 13.2554 4.13959C13.3758 4.12443 13.4953 4.11284 13.6139 4.10213C13.7361 4.09143 13.8565 4.08251 13.9751 4.07538C13.9475 3.95587 13.9145 3.83904 13.8788 3.72399C13.5791 2.77775 12.9994 2.00542 12.1397 1.42038C11.2416 0.809468 10.1241 0.5 8.8176 0.5C8.32977 0.5 7.80447 0.5437 7.25778 0.629316L1.76227 1.49351C0.741117 1.65315 0 2.52001 0 3.55276V18.4304C0 19.58 0.934646 20.5155 2.08423 20.5155C2.19214 20.5155 2.30183 20.5066 2.41064 20.4897L4.62775 20.1409L4.98359 20.0848V7.82466C4.98359 6.43875 5.9771 5.27668 7.34696 5.06175L12.8425 4.19845V4.19756Z" fill="#0098FF"/>
<path id="Vector_3" d="M13.4822 9.78935C13.2182 9.51378 12.923 9.27476 12.6001 9.07588C12.8071 8.85649 12.9979 8.62105 13.17 8.37222C13.7042 7.60524 14.0137 6.75889 14.0949 5.851C14.1056 5.73328 14.1118 5.61377 14.1154 5.49426C13.9986 5.49961 13.8799 5.50853 13.7586 5.51923C13.6409 5.52994 13.5223 5.54242 13.401 5.55758C13.2895 5.57185 13.1772 5.58701 13.063 5.60485L13.0416 5.60842L7.56751 6.46904C6.89506 6.57517 6.40723 7.14505 6.40723 7.82553V19.8636L6.76307 19.8074L8.05802 19.604C9.97725 19.3026 11.5665 18.5427 12.7821 17.345C14.0476 16.1 14.6897 14.6267 14.6897 12.967C14.6897 11.7006 14.2839 10.6312 13.4822 9.79025V9.78935Z" fill="#0098FF"/>
</g>
</g>
</svg>
