<svg width="72" height="72" viewBox="0 0 72 72" fill="none" xmlns="http://www.w3.org/2000/svg">
<g id="Mask group">
<mask id="mask0_821_7046" style="mask-type:alpha" maskUnits="userSpaceOnUse" x="0" y="0" width="72" height="72">
<circle id="Ellipse 5" cx="36" cy="36" r="36" fill="#D9D9D9"/>
</mask>
<g mask="url(#mask0_821_7046)">
<g id="Group 20135">
<path id="&#237;&#140;&#168;&#236;&#138;&#164; 13501" d="M49.4846 43.2138C48.8217 42.5516 47.9663 42.1159 47.0409 41.969C46.1155 41.8221 45.1673 41.9715 44.3318 42.3959C41.7406 43.6813 38.8871 44.3502 35.9946 44.3502C33.102 44.3502 30.2486 43.6813 27.6573 42.3959C26.8218 41.9716 25.8737 41.8223 24.9483 41.9692C24.0228 42.1161 23.1675 42.5517 22.5045 43.2138C17.5971 48.203 13.6769 55.8185 11.381 64.9651C11.1507 65.8885 11.2254 66.8617 11.594 67.7391C11.9625 68.6166 12.6052 69.3512 13.4258 69.8332C18.707 72.9134 26.0615 74.2057 35.9999 74.2057C45.9382 74.2057 53.2895 72.9126 58.574 69.8332C59.3948 69.3514 60.0376 68.6168 60.4062 67.7393C60.7747 66.8618 60.8493 65.8885 60.6187 64.9651C58.3139 55.8185 54.392 48.1989 49.4846 43.2138Z" fill="#BDBDBD"/>
<path id="&#237;&#131;&#128;&#236;&#155;&#144; 305" d="M35.9512 40.2773C43.9668 40.2773 50.4648 33.7793 50.4648 25.7637C50.4648 17.748 43.9668 11.25 35.9512 11.25C27.9355 11.25 21.4375 17.748 21.4375 25.7637C21.4375 33.7793 27.9355 40.2773 35.9512 40.2773Z" fill="#BDBDBD"/>
</g>
</g>
</g>
</svg>
