<svg width="80" height="80" viewBox="0 0 80 80" fill="none" xmlns="http://www.w3.org/2000/svg">
<g clip-path="url(#clip0_394_10696)">
<path d="M80 40.1454C80 34.1605 75.982 29.1208 70.5023 27.5596C73.3569 22.5619 72.6567 16.0834 68.3899 11.8167C64.1577 7.58443 57.7557 6.86119 52.7734 9.63551C51.258 4.08304 46.18 0 40.1454 0C34.1108 0 29.1208 4.01799 27.5596 9.49775C22.5619 6.64307 16.0834 7.34335 11.8167 11.6101C7.58443 15.8423 6.86119 22.2443 9.63551 27.2266C4.08304 28.742 0 33.82 0 39.8546C0 45.8892 4.01799 50.8792 9.49775 52.4404C6.64307 57.4381 7.34335 63.9166 11.6101 68.1833C15.8768 72.45 22.2443 73.1388 27.2266 70.3645C28.742 75.917 33.82 80 39.8508 80C45.8816 80 50.8753 75.982 52.4366 70.5023C57.4342 73.3569 63.9128 72.6567 68.1795 68.3899C72.4118 64.1577 73.135 57.7557 70.3607 52.7734C75.9131 51.258 79.9962 46.18 79.9962 40.1492L80 40.1454Z" fill="#E0E0E0"/>
<path d="M58.1831 24.6707C59.2622 23.6872 62.4613 20.2662 58.7074 17.0786C55.3284 14.2086 52.2212 17.3197 51.563 19.7611C48.6165 18.5174 44.5258 17.5684 38.9963 17.798C34.0944 18.0008 30.3328 19.256 27.5967 20.668C26.862 18.2495 23.8083 15.303 20.4906 18.1194C16.7252 21.3185 20.0735 24.885 21.1526 25.8684C19.1589 28.3404 13.5911 36.5371 16.7749 47.8066C19.6908 58.1309 30.0611 62.2446 39.9721 62.2446C46.6113 62.2446 53.3156 60.6565 57.988 56.3286C60.2916 54.1971 62.1016 51.3998 63.1693 47.8028C64.9219 41.9021 64.1871 36.7782 62.7942 32.8444C61.2291 28.417 58.826 25.4972 58.187 24.6745L58.1831 24.6707Z" fill="#EEEEEE"/>
<path d="M38.5075 38.0715C38.5075 38.0715 29.136 37.9988 29.136 44.5348C29.136 51.0707 36.8199 52.8271 40.2295 52.8271C42.755 52.8271 45.4758 52.1268 47.5307 50.7837C49.5856 49.4405 50.9823 47.4583 50.8561 44.8906C50.6035 39.7553 43.2449 37.6009 38.5075 38.0677V38.0715Z" fill="white"/>
<path d="M36.4158 35.8252C36.4158 35.8252 36.4426 41.06 40.2807 41.06C43.1928 41.06 43.5793 35.7295 43.5793 35.7295" stroke="#BDBDBD" stroke-width="1.91333" stroke-linecap="round" stroke-linejoin="round"/>
<path d="M36.9164 37.7577C36.9164 37.7577 39.9127 37.0422 42.8898 37.7577C42.8898 37.7577 42.5148 40.9032 40.3719 40.7196C38.2328 40.5359 36.9126 37.7577 36.9126 37.7577H36.9164Z" fill="#BDBDBD"/>
<path d="M40.033 40.3635V44.2973" stroke="#BDBDBD" stroke-width="1.91333" stroke-linecap="round" stroke-linejoin="round"/>
<path d="M36.6658 44.1826C36.6658 44.1826 39.773 46.3638 43.3356 44.1826" stroke="#BDBDBD" stroke-width="1.91333" stroke-linecap="round" stroke-linejoin="round"/>
<path d="M35.64 32.4958C36.4854 32.4958 37.1707 31.4832 37.1707 30.2342C37.1707 28.9852 36.4854 27.9727 35.64 27.9727C34.7947 27.9727 34.1094 28.9852 34.1094 30.2342C34.1094 31.4832 34.7947 32.4958 35.64 32.4958Z" fill="#BDBDBD"/>
<path d="M45.8894 30.2342C45.8894 31.4817 45.2045 32.4958 44.3588 32.4958C43.5131 32.4958 42.8281 31.4855 42.8281 30.2342C42.8281 28.9829 43.5131 27.9727 44.3588 27.9727C45.2045 27.9727 45.8894 28.9829 45.8894 30.2342Z" fill="#BDBDBD"/>
<path d="M23.7785 19.7764C23.7785 19.7764 22.4392 19.5927 21.6891 20.6489C21.0424 21.5596 20.985 22.2561 21.693 23.0979C22.5846 24.1617 24.7428 22.4857 25.0604 21.9002C25.4507 21.1808 25.4201 19.9333 23.7785 19.7764Z" fill="#BDBDBD"/>
<path d="M55.6243 18.521C55.6243 18.521 56.9636 18.3373 57.7137 19.3935C58.3604 20.3042 58.4178 21.0007 57.7098 21.8426C56.8182 22.9064 54.66 21.2303 54.3424 20.6448C53.9521 19.9254 53.9827 18.6779 55.6243 18.521Z" fill="#BDBDBD"/>
<path d="M26.811 38.0791L12.3501 35.7793" stroke="#BDBDBD" stroke-width="1.91333" stroke-linecap="round" stroke-linejoin="round"/>
<path d="M26.8113 41.0945L12.4001 42.5371" stroke="#BDBDBD" stroke-width="1.91333" stroke-linecap="round" stroke-linejoin="round"/>
<path d="M53.572 38.0791L68.0329 35.7793" stroke="#BDBDBD" stroke-width="1.91333" stroke-linecap="round" stroke-linejoin="round"/>
<path d="M53.572 41.0947L67.9832 42.5374" stroke="#BDBDBD" stroke-width="1.91333" stroke-linecap="round" stroke-linejoin="round"/>
</g>
<defs>
<clipPath id="clip0_394_10696">
<rect width="80" height="80" fill="white"/>
</clipPath>
</defs>
</svg>
