<svg width="34" height="34" viewBox="0 0 34 34" fill="none" xmlns="http://www.w3.org/2000/svg">
<g id="arrow_upward_alt">
<mask id="mask0_1214_15" style="mask-type:alpha" maskUnits="userSpaceOnUse" x="0" y="0" width="34" height="34">
<rect id="Bounding box" width="34" height="34" fill="#D9D9D9"/>
</mask>
<g mask="url(#mask0_1214_15)">
<path id="arrow_upward_alt_2" d="M15.5828 12.4666L11.4745 16.5749C11.2148 16.8346 10.8842 16.9645 10.4828 16.9645C10.0814 16.9645 9.75087 16.8346 9.49115 16.5749C9.23142 16.3152 9.10156 15.9846 9.10156 15.5832C9.10156 15.1818 9.23142 14.8513 9.49115 14.5916L16.0078 8.0749C16.2911 7.79157 16.6217 7.6499 16.9995 7.6499C17.3773 7.6499 17.7078 7.79157 17.9911 8.0749L24.5078 14.5916C24.7675 14.8513 24.8974 15.1818 24.8974 15.5832C24.8974 15.9846 24.7675 16.3152 24.5078 16.5749C24.2481 16.8346 23.9175 16.9645 23.5161 16.9645C23.1148 16.9645 22.7842 16.8346 22.5245 16.5749L18.4161 12.4666V24.0832C18.4161 24.4846 18.2804 24.8211 18.0089 25.0926C17.7373 25.3641 17.4009 25.4999 16.9995 25.4999C16.5981 25.4999 16.2616 25.3641 15.9901 25.0926C15.7186 24.8211 15.5828 24.4846 15.5828 24.0832V12.4666Z" fill="white"/>
</g>
</g>
</svg>
