<svg width="36" height="36" viewBox="0 0 36 36" fill="none" xmlns="http://www.w3.org/2000/svg">
<g id="blog">
<circle id="Ellipse 12" cx="18" cy="18" r="18" fill="#616161"/>
<g id="Group 17922">
<path id="Vector" d="M28.3911 15.5954H28.3672C27.8975 15.1694 27.4238 14.9863 26.6595 14.9863C25.8077 14.9863 25.0633 15.269 24.5458 15.874C24.0244 16.483 23.7656 17.2991 23.7656 18.334C23.7656 19.2535 23.9965 19.9899 24.4662 20.5353C24.9359 21.0806 25.6285 21.3792 26.4207 21.3792C27.2805 21.3792 27.9254 21.1563 28.3672 20.5432H28.3911V20.9413C28.3911 21.9643 27.3084 22.4858 26.5202 22.4022V23.9387C27.4636 24.074 28.5901 24.0223 29.3743 23.2739C30.0351 22.645 30.3177 21.7374 30.3177 20.2527V15.1336H28.3911V15.5954ZM28.0209 19.1779C27.7542 19.4446 27.4357 19.576 27.0616 19.576C26.6874 19.576 26.3769 19.4406 26.1142 19.1779C25.8515 18.9072 25.7201 18.5888 25.7201 18.2066C25.7201 17.8245 25.8515 17.5021 26.1142 17.2354C26.3769 16.9687 26.6914 16.8373 27.0616 16.8373C27.4318 16.8373 27.7542 16.9726 28.0209 17.2354C28.2876 17.5021 28.4189 17.8245 28.4189 18.2066C28.4189 18.5888 28.2876 18.9072 28.0209 19.1779Z" fill="#BDBDBD"/>
<path id="Vector_2" d="M8.74675 15.0975C7.92276 15.1214 7.22616 15.2767 6.70072 15.7225H6.67683V12.4902H4.73828V20.949H6.67683V20.539H6.70072C7.11868 20.8575 7.68393 21.0923 8.45616 21.0923C9.31199 21.0923 10.0962 20.8495 10.6097 20.2763C11.1232 19.6991 11.3739 19.1538 11.3739 18.1984C11.3739 17.3187 11.0555 16.5305 10.6176 16.025C10.1798 15.5155 9.44733 15.0776 8.74675 15.1015V15.0975ZM8.95772 19.1776C8.69102 19.4443 8.36859 19.5757 7.99839 19.5757C7.6282 19.5757 7.30975 19.4404 7.05101 19.1776C6.78829 18.907 6.66091 18.5885 6.66091 18.2064C6.66091 17.8242 6.79227 17.5018 7.05101 17.2351C7.30975 16.9684 7.6282 16.837 7.99839 16.837C8.36859 16.837 8.695 16.9724 8.95772 17.2351C9.22442 17.5018 9.35578 17.8242 9.35578 18.2064C9.35578 18.5885 9.22442 18.907 8.95772 19.1776Z" fill="#BDBDBD"/>
<path id="Vector_3" d="M21.8101 15.9818C21.4956 15.6872 21.1334 15.4643 20.7234 15.3091C20.3174 15.1538 19.8835 15.0742 19.4297 15.0742C18.9759 15.0742 18.5619 15.1538 18.1599 15.3091C17.7539 15.4643 17.3916 15.6912 17.0732 15.9818C16.7468 16.2923 16.5 16.6346 16.3328 17.0088C16.1656 17.383 16.082 17.781 16.082 18.203C16.082 18.6249 16.1656 19.023 16.3328 19.3932C16.504 19.7713 16.7468 20.1097 17.0732 20.4202C17.3956 20.7147 17.7539 20.9416 18.1599 21.0969C18.5619 21.2521 18.9879 21.3317 19.4297 21.3317C19.8716 21.3317 20.3174 21.2521 20.7234 21.0969C21.1294 20.9416 21.4917 20.7147 21.8101 20.4202C22.1286 20.1216 22.3674 19.7873 22.5386 19.4091C22.7058 19.0309 22.7893 18.6249 22.7893 18.203C22.7893 17.781 22.7058 17.375 22.5386 16.9968C22.3714 16.6187 22.1286 16.2764 21.8101 15.9778V15.9818ZM20.389 19.1623C20.1223 19.425 19.8039 19.5604 19.4297 19.5604C19.0555 19.5604 18.7451 19.425 18.4863 19.1623C18.2236 18.8916 18.0922 18.5732 18.0922 18.191C18.0922 17.8089 18.2236 17.4865 18.4863 17.2237C18.749 16.9531 19.0635 16.8257 19.4297 16.8257C19.7959 16.8257 20.1223 16.957 20.389 17.2237C20.6557 17.4865 20.7911 17.8129 20.7911 18.191C20.7911 18.5692 20.6557 18.8956 20.389 19.1623Z" fill="#BDBDBD"/>
<path id="Vector_4" d="M11.8398 12.3154V14.4132C11.8398 14.4132 12.7952 14.5724 12.7952 15.7786V21.013H14.7775V15.8422C14.6143 12.4866 11.8398 12.3154 11.8398 12.3154Z" fill="#BDBDBD"/>
</g>
</g>
</svg>
