<svg width="20" height="14" viewBox="0 0 20 14" fill="none" xmlns="http://www.w3.org/2000/svg">
<rect width="20" height="14" fill="#F5F5F5"/>
<path d="M-1482 -3145C-1482 -3146.1 -1481.1 -3147 -1480 -3147H5280C5281.1 -3147 5282 -3146.1 5282 -3145V9871C5282 9872.1 5281.1 9873 5280 9873H-1480C-1481.1 9873 -1482 9872.1 -1482 9871V-3145Z" fill="#E9E9E9"/>
<path d="M-1480 -3146H5280V-3148H-1480V-3146ZM5281 -3145V9871H5283V-3145H5281ZM5280 9872H-1480V9874H5280V9872ZM-1481 9871V-3145H-1483V9871H-1481ZM-1480 9872C-1480.55 9872 -1481 9871.55 -1481 9871H-1483C-1483 9872.66 -1481.66 9874 -1480 9874V9872ZM5281 9871C5281 9871.55 5280.55 9872 5280 9872V9874C5281.66 9874 5283 9872.66 5283 9871H5281ZM5280 -3146C5280.55 -3146 5281 -3145.55 5281 -3145H5283C5283 -3146.66 5281.66 -3148 5280 -3148V-3146ZM-1480 -3148C-1481.66 -3148 -1483 -3146.66 -1483 -3145H-1481C-1481 -3145.55 -1480.55 -3146 -1480 -3146V-3148Z" fill="black" fill-opacity="0.1"/>
<rect width="1200" height="260" transform="translate(-1100 -51)" fill="#424242"/>
<circle cx="10" cy="7" r="18" fill="#616161"/>
<path d="M19.5823 2.18599C19.3518 1.32597 18.6745 0.647519 17.8145 0.418107C16.2543 -0.000488281 10.0005 -0.000488281 10.0005 -0.000488281C10.0005 -0.000488281 3.74555 -0.000488281 2.18645 0.418107C1.32535 0.647519 0.647997 1.32488 0.417501 2.18599C0 3.74512 0 7.00038 0 7.00038C0 7.00038 0 10.2546 0.417501 11.8148C0.647997 12.6759 1.32535 13.3532 2.18645 13.5827C3.74664 14.0002 10.0005 14.0002 10.0005 14.0002C10.0005 14.0002 16.2543 14.0002 17.8145 13.5827C18.6745 13.3522 19.3529 12.6748 19.5823 11.8148C19.9998 10.2546 19.9998 7.00038 19.9998 7.00038C19.9998 7.00038 19.9998 3.74621 19.5823 2.18599Z" fill="#BDBDBD"/>
<path d="M8 10.0001L13.197 7.00035L8 3.99951V10.0001Z" fill="#616161"/>
</svg>
