<svg width="36" height="36" viewBox="0 0 36 36" fill="none" xmlns="http://www.w3.org/2000/svg">
<g id="instagram">
<circle id="Ellipse 11" cx="18" cy="18" r="18" fill="#616161"/>
<g id="Group">
<path id="Vector" d="M13.1929 6.63184H22.8046C26.4292 6.63184 29.3672 9.56984 29.3672 13.1944V22.8061C29.3672 26.4307 26.4292 29.3687 22.8046 29.3687H13.1929C9.56835 29.3687 6.63035 26.4307 6.63035 22.8061V13.195C6.63035 9.57048 9.56835 6.63247 13.1929 6.63247V6.63184ZM8.72429 22.9757C8.72429 25.3815 10.6747 27.3319 13.0805 27.3319H22.917C25.3228 27.3319 27.2732 25.3815 27.2732 22.9757V13.1391C27.2732 10.7334 25.3228 8.78294 22.917 8.78294H13.0805C10.6747 8.78294 8.72429 10.7334 8.72429 13.1391V22.9757Z" fill="#BDBDBD"/>
<path id="Vector_2" d="M17.9989 12.1582C21.257 12.1582 23.8984 14.7996 23.8984 18.0577C23.8984 21.3158 21.257 23.9572 17.9989 23.9572C14.7408 23.9572 12.0994 21.3158 12.0994 18.0577C12.0994 14.7996 14.7408 12.1582 17.9989 12.1582ZM17.9989 21.8823C20.1113 21.8823 21.8235 20.1701 21.8235 18.0577C21.8235 15.9453 20.1113 14.2331 17.9989 14.2331C15.8866 14.2331 14.1743 15.9453 14.1743 18.0577C14.1743 20.1701 15.8866 21.8823 17.9989 21.8823Z" fill="#BDBDBD"/>
<path id="Vector_3" d="M11.903 13.3073C11.1439 13.3073 10.5286 12.692 10.5286 11.933C10.5286 11.1739 11.1439 10.5586 11.903 10.5586C12.662 10.5586 13.2773 11.1739 13.2773 11.933C13.2773 12.692 12.662 13.3073 11.903 13.3073Z" fill="#BDBDBD"/>
</g>
</g>
</svg>
