<svg width="20" height="21" viewBox="0 0 20 21" fill="none" xmlns="http://www.w3.org/2000/svg">
<g id="Isolation_Mode" clip-path="url(#clip0_1045_13177)">
<path id="Vector" d="M10.0018 0.499023C4.74252 0.499023 0.476562 4.41622 0.476562 9.24635C0.476562 12.8135 1.98152 14.5181 4.04421 16.0694L4.05342 16.074V20.2612C4.05342 20.4602 4.28159 20.5723 4.44061 20.4534L8.05204 17.79L8.1304 17.8244C8.73653 17.9342 9.3611 17.9937 10.0018 17.9937C15.2611 17.9937 19.527 14.0765 19.527 9.24635C19.527 4.41622 15.2634 0.499023 10.0018 0.499023Z" fill="#616161"/>
<path id="Vector_2" d="M10 0C4.47799 0 0 4.11168 0 9.18207C0 12.9277 1.58101 14.7169 3.7451 16.346L3.75432 16.3506V20.746C3.75432 20.9542 3.99401 21.0732 4.15994 20.9474L7.95114 18.1513L8.03411 18.1857C8.6702 18.3024 9.32703 18.3641 10 18.3641C15.522 18.3641 20 14.2525 20 9.17978C20 4.1071 15.5243 0 10 0ZM6.649 11.509C7.62849 11.509 8.46739 10.9256 8.7209 10.0264H10.1705C9.81563 11.7584 8.45817 12.8933 6.649 12.8933C4.54713 12.8933 2.88085 11.3374 2.88085 9.17063C2.88085 7.00381 4.54713 5.44792 6.649 5.44792C8.47661 5.44792 9.84328 6.60569 10.1798 8.36751H8.73473C8.51579 7.4088 7.64692 6.81161 6.649 6.81161C5.23623 6.81161 4.29592 7.81151 4.29592 9.16834C4.29592 10.5252 5.36529 11.5068 6.649 11.5068M16.2019 12.7515H14.8721V9.77468C14.8721 9.09054 14.4711 8.72216 13.8534 8.72216C13.1643 8.72216 12.7195 9.14088 12.7195 9.98976V12.7515H11.3897V5.47309H12.7195V8.20963C13.0376 7.72914 13.5538 7.49346 14.2544 7.49346C14.8214 7.49346 15.2846 7.67651 15.6442 8.05633C16.0152 8.43386 16.2019 8.94639 16.2019 9.60994V12.7492V12.7515Z" fill="#BDBDBD"/>
</g>
<defs>
<clipPath id="clip0_1045_13177">
<rect width="20" height="21" fill="white"/>
</clipPath>
</defs>
</svg>
