<svg width="24" height="24" viewBox="0 0 24 24" fill="none" xmlns="http://www.w3.org/2000/svg">
<g id="logout">
<mask id="mask0_524_6973" style="mask-type:alpha" maskUnits="userSpaceOnUse" x="0" y="0" width="24" height="24">
<rect id="Bounding box" width="24" height="24" fill="#D9D9D9"/>
</mask>
<g mask="url(#mask0_524_6973)">
<path id="logout_2" d="M5.81818 20.3636C5.31818 20.3636 4.89015 20.1856 4.53409 19.8295C4.17803 19.4735 4 19.0455 4 18.5455V5.81818C4 5.31818 4.17803 4.89015 4.53409 4.53409C4.89015 4.17803 5.31818 4 5.81818 4H11.2727C11.5303 4 11.7462 4.08712 11.9205 4.26136C12.0947 4.43561 12.1818 4.65152 12.1818 4.90909C12.1818 5.16667 12.0947 5.38258 11.9205 5.55682C11.7462 5.73106 11.5303 5.81818 11.2727 5.81818H5.81818V18.5455H11.2727C11.5303 18.5455 11.7462 18.6326 11.9205 18.8068C12.0947 18.9811 12.1818 19.197 12.1818 19.4545C12.1818 19.7121 12.0947 19.928 11.9205 20.1023C11.7462 20.2765 11.5303 20.3636 11.2727 20.3636H5.81818ZM16.8864 13.0909H10.3636C10.1061 13.0909 9.89015 13.0038 9.71591 12.8295C9.54167 12.6553 9.45455 12.4394 9.45455 12.1818C9.45455 11.9242 9.54167 11.7083 9.71591 11.5341C9.89015 11.3598 10.1061 11.2727 10.3636 11.2727H16.8864L15.1818 9.56818C15.0152 9.40152 14.9318 9.19697 14.9318 8.95455C14.9318 8.71212 15.0152 8.5 15.1818 8.31818C15.3485 8.13636 15.5606 8.04167 15.8182 8.03409C16.0758 8.02652 16.2955 8.11364 16.4773 8.29545L19.7273 11.5455C19.9091 11.7273 20 11.9394 20 12.1818C20 12.4242 19.9091 12.6364 19.7273 12.8182L16.4773 16.0682C16.2955 16.25 16.0795 16.3371 15.8295 16.3295C15.5795 16.322 15.3636 16.2273 15.1818 16.0455C15.0152 15.8636 14.9356 15.6477 14.9432 15.3977C14.9508 15.1477 15.0379 14.9394 15.2045 14.7727L16.8864 13.0909Z" fill="#9E9E9E"/>
</g>
</g>
</svg>
