<svg width="20" height="20" viewBox="0 0 20 20" fill="none" xmlns="http://www.w3.org/2000/svg">
<g id="Layer_1">
<g id="Vector">
<path d="M12.7108 3.63789C13.3456 2.88299 13.778 1.86839 13.6649 0.833008C12.7327 0.876293 11.5962 1.41649 10.9413 2.17312C10.3503 2.81893 9.82675 3.87682 9.96357 4.86892C11.0088 4.95375 12.0523 4.372 12.7108 3.63789Z" fill="#BDBDBD"/>
<path d="M13.6528 5.06072C12.135 4.97588 10.8453 5.87794 10.1193 5.87794C9.39326 5.87794 8.28232 5.10573 7.08382 5.12478C5.52048 5.14556 4.07207 5.98529 3.27854 7.31847C1.64589 9.98657 2.84803 13.9428 4.43509 16.1157C5.2049 17.1909 6.13524 18.3735 7.35381 18.3319C8.51035 18.2887 8.96275 17.6203 10.3656 17.6203C11.7684 17.6203 12.177 18.3319 13.401 18.3129C14.6707 18.2904 15.4624 17.2377 16.234 16.1608C17.1151 14.9332 17.4781 13.7524 17.5 13.6866C17.4781 13.6658 15.0574 12.7828 15.0319 10.1372C15.01 7.921 16.9363 6.87004 17.0257 6.80424C15.9385 5.27714 14.2383 5.10573 13.6509 5.06245" fill="#BDBDBD"/>
</g>
</g>
</svg>
