<svg width="20" height="20" viewBox="0 0 20 20" fill="none" xmlns="http://www.w3.org/2000/svg">
<g id="Layer_1">
<g id="Group">
<path id="Vector" d="M10.915 9.54255L3.07812 17.861C3.07812 17.861 3.07812 17.8641 3.07812 17.8656C3.31812 18.7687 4.14274 19.4333 5.12274 19.4333C5.51351 19.4333 5.8812 19.3272 6.19659 19.1426L6.2212 19.1272L15.0443 14.0364L10.915 9.54102V9.54255Z" fill="#BDBDBD"/>
<path id="Vector_2" d="M18.8421 8.12637L18.8344 8.12176L15.0251 5.91406L10.7344 9.73252L15.0405 14.0371L18.8298 11.851C19.4944 11.4925 19.9451 10.7925 19.9451 9.98483C19.9451 9.17714 19.5005 8.48637 18.8421 8.12637Z" fill="#BDBDBD"/>
<path id="Vector_3" d="M3.07231 2.07227C3.02462 2.24611 3 2.42919 3 2.61688V17.3169C3 17.5061 3.02462 17.6877 3.07231 17.8615L11.18 9.75534L3.07231 2.07227Z" fill="#BDBDBD"/>
<path id="Vector_4" d="M10.9735 9.96769L15.0304 5.91231L6.21812 0.803077C5.89812 0.610769 5.52428 0.5 5.12428 0.5C4.14428 0.5 3.31812 1.16615 3.07812 2.07077C3.07812 2.07077 3.07812 2.07077 3.07812 2.07231L10.9735 9.96769Z" fill="#BDBDBD"/>
</g>
<g id="Clip path group">
<mask id="mask0_1045_13156" style="mask-type:luminance" maskUnits="userSpaceOnUse" x="3" y="0" width="17" height="20">
<g id="clippath">
<path id="Vector_5" d="M18.8385 8.12615L18.8308 8.12154L15.0215 5.91385H15.0231L6.21231 0.803077C5.89231 0.610769 5.51846 0.5 5.11846 0.5C4.13846 0.5 3.31231 1.16615 3.07231 2.07077C3.07231 2.07077 3.07231 2.07077 3.07231 2.07231C3.02462 2.24615 3 2.42923 3 2.61692V17.3169C3 17.5062 3.02462 17.6877 3.07231 17.8615C3.07231 17.8631 3.07231 17.8646 3.07231 17.8662C3.31231 18.7692 4.13692 19.4338 5.11692 19.4338C5.50769 19.4338 5.87538 19.3277 6.19077 19.1431L6.21538 19.1277L15.0385 14.0369L18.8277 11.8492C19.4923 11.4908 19.9431 10.7908 19.9431 9.98308C19.9431 9.17538 19.4985 8.48462 18.84 8.12462L18.8385 8.12615Z" fill="white"/>
</g>
</mask>
<g mask="url(#mask0_1045_13156)">
<g id="Group_2">
<g id="Group_3">
<path id="Vector_6" d="M2.95312 17.9741L15.087 5.83105" stroke="#616161" stroke-width="0.8" stroke-miterlimit="10"/>
<path id="Vector_7" d="M2.95312 1.94922L15.1639 14.1985" stroke="#616161" stroke-width="0.8" stroke-miterlimit="10"/>
</g>
</g>
</g>
</g>
</g>
</svg>
