<svg width="32" height="32" viewBox="0 0 32 32" fill="none" xmlns="http://www.w3.org/2000/svg">
<g id="menu">
<mask id="mask0_266_6975" style="mask-type:alpha" maskUnits="userSpaceOnUse" x="0" y="0" width="32" height="32">
<rect id="Bounding box" width="32" height="32" fill="#D9D9D9"/>
</mask>
<g mask="url(#mask0_266_6975)">
<path id="menu_2" d="M7.70354 21.7775C7.40971 21.7775 7.16342 21.6781 6.96465 21.4793C6.76589 21.2805 6.6665 21.0342 6.6665 20.7404C6.6665 20.4466 6.76589 20.2003 6.96465 20.0015C7.16342 19.8028 7.40971 19.7034 7.70354 19.7034H24.2961C24.59 19.7034 24.8363 19.8028 25.035 20.0015C25.2338 20.2003 25.3332 20.4466 25.3332 20.7404C25.3332 21.0342 25.2338 21.2805 25.035 21.4793C24.8363 21.6781 24.59 21.7775 24.2961 21.7775H7.70354ZM7.70354 16.5923C7.40971 16.5923 7.16342 16.4929 6.96465 16.2941C6.76589 16.0954 6.6665 15.8491 6.6665 15.5552C6.6665 15.2614 6.76589 15.0151 6.96465 14.8163C7.16342 14.6176 7.40971 14.5182 7.70354 14.5182H24.2961C24.59 14.5182 24.8363 14.6176 25.035 14.8163C25.2338 15.0151 25.3332 15.2614 25.3332 15.5552C25.3332 15.8491 25.2338 16.0954 25.035 16.2941C24.8363 16.4929 24.59 16.5923 24.2961 16.5923H7.70354ZM7.70354 11.4071C7.40971 11.4071 7.16342 11.3077 6.96465 11.1089C6.76589 10.9102 6.6665 10.6639 6.6665 10.37C6.6665 10.0762 6.76589 9.82992 6.96465 9.63116C7.16342 9.43239 7.40971 9.33301 7.70354 9.33301H24.2961C24.59 9.33301 24.8363 9.43239 25.035 9.63116C25.2338 9.82992 25.3332 10.0762 25.3332 10.37C25.3332 10.6639 25.2338 10.9102 25.035 11.1089C24.8363 11.3077 24.59 11.4071 24.2961 11.4071H7.70354Z" fill="#424242"/>
</g>
</g>
</svg>
