<svg width="16" height="16" viewBox="0 0 16 16" fill="none" xmlns="http://www.w3.org/2000/svg">
<g id="edit_line">
<mask id="mask0_821_7054" style="mask-type:alpha" maskUnits="userSpaceOnUse" x="0" y="0" width="16" height="16">
<rect id="Bounding box" width="16" height="16" fill="#D9D9D9"/>
</mask>
<g mask="url(#mask0_821_7054)">
<path id="edit" d="M3.8512 12.1481H4.69565L10.4882 6.35551L9.64379 5.51107L3.8512 11.3037V12.1481ZM3.25861 13.3333C3.09071 13.3333 2.94997 13.2765 2.83639 13.1629C2.72281 13.0493 2.66602 12.9086 2.66602 12.7407V11.3037C2.66602 11.1456 2.69565 10.995 2.7549 10.8518C2.81416 10.7086 2.89811 10.5827 3.00676 10.474L10.4882 3.00737C10.6068 2.89872 10.7376 2.81477 10.8808 2.75551C11.024 2.69626 11.1747 2.66663 11.3327 2.66663C11.4907 2.66663 11.6438 2.69626 11.7919 2.75551C11.9401 2.81477 12.0685 2.90366 12.1771 3.02218L12.9919 3.85181C13.1105 3.96045 13.1969 4.08885 13.2512 4.237C13.3055 4.38514 13.3327 4.53329 13.3327 4.68144C13.3327 4.83947 13.3055 4.99008 13.2512 5.13329C13.1969 5.2765 13.1105 5.40737 12.9919 5.52589L5.52527 12.9926C5.41663 13.1012 5.29071 13.1851 5.1475 13.2444C5.00429 13.3037 4.85367 13.3333 4.69565 13.3333H3.25861ZM10.0586 5.9407L9.64379 5.51107L10.4882 6.35551L10.0586 5.9407Z" fill="white"/>
</g>
</g>
</svg>
