<svg width="24" height="24" viewBox="0 0 24 24" fill="none" xmlns="http://www.w3.org/2000/svg">
<rect x="0.75" y="0.75" width="22.5" height="22.5" rx="7.25" stroke="#24BEF0" stroke-width="1.5"/>
<mask id="mask0_665_2564" style="mask-type:alpha" maskUnits="userSpaceOnUse" x="2" y="2" width="20" height="20">
<rect x="2" y="2" width="20" height="20" fill="#D9D9D9"/>
</mask>
<g mask="url(#mask0_665_2564)">
<path d="M9.88559 14.5542L17.1816 7.25826C17.3537 7.08609 17.5582 7 17.7949 7C18.0317 7 18.2361 7.08609 18.4083 7.25826C18.5805 7.43044 18.6666 7.6349 18.6666 7.87164C18.6666 8.10838 18.5805 8.31284 18.4083 8.48502L10.4882 16.4051C10.316 16.5773 10.1152 16.6634 9.88559 16.6634C9.65602 16.6634 9.45515 16.5773 9.28298 16.4051L5.58119 12.7033C5.40901 12.5312 5.32651 12.3267 5.33368 12.09C5.34086 11.8532 5.43053 11.6488 5.60271 11.4766C5.77488 11.3044 5.97934 11.2183 6.21609 11.2183C6.45283 11.2183 6.65729 11.3044 6.82946 11.4766L9.88559 14.5542Z" fill="#24BEF0"/>
</g>
</svg>
