<svg width="25" height="25" viewBox="0 0 25 25" fill="none" xmlns="http://www.w3.org/2000/svg">
<rect x="0.5" y="0.844055" width="24" height="24" rx="8" fill="currentColor"/>
<mask id="mask0_2286_1242" style="mask-type:alpha" maskUnits="userSpaceOnUse" x="2" y="2" width="21" height="21">
<rect x="2.5" y="2.84406" width="20" height="20" fill="#D9D9D9"/>
</mask>
<g mask="url(#mask0_2286_1242)">
<path d="M10.3857 15.3983L17.6816 8.10232C17.8538 7.93014 18.0583 7.84406 18.295 7.84406C18.5318 7.84406 18.7362 7.93014 18.9084 8.10232C19.0806 8.2745 19.1667 8.47896 19.1667 8.7157C19.1667 8.95244 19.0806 9.1569 18.9084 9.32908L10.9883 17.2492C10.8161 17.4214 10.6152 17.5075 10.3857 17.5075C10.1561 17.5075 9.95524 17.4214 9.78306 17.2492L6.08127 13.5474C5.90909 13.3752 5.82659 13.1708 5.83377 12.934C5.84094 12.6973 5.93062 12.4928 6.10279 12.3206C6.27497 12.1485 6.47943 12.0624 6.71617 12.0624C6.95291 12.0624 7.15737 12.1485 7.32955 12.3206L10.3857 15.3983Z" fill="white"/>
</g>
</svg>
