<svg width="24" height="25" viewBox="0 0 24 25" fill="none" xmlns="http://www.w3.org/2000/svg">
<rect y="0.844055" width="24" height="24" rx="12" fill="#E0E0E0"/>
<mask id="mask0_2684_207" style="mask-type:alpha" maskUnits="userSpaceOnUse" x="2" y="2" width="20" height="21">
<rect x="2" y="2.84406" width="20" height="20" fill="#D9D9D9"/>
</mask>
<g mask="url(#mask0_2684_207)">
<path d="M9.88568 15.3983L17.1817 8.10232C17.3538 7.93014 17.5583 7.84406 17.795 7.84406C18.0318 7.84406 18.2362 7.93014 18.4084 8.10232C18.5806 8.2745 18.6667 8.47896 18.6667 8.7157C18.6667 8.95244 18.5806 9.1569 18.4084 9.32908L10.4883 17.2492C10.3161 17.4214 10.1153 17.5075 9.88568 17.5075C9.65612 17.5075 9.45524 17.4214 9.28307 17.2492L5.58128 13.5474C5.4091 13.3752 5.3266 13.1708 5.33377 12.934C5.34095 12.6973 5.43062 12.4928 5.6028 12.3206C5.77498 12.1485 5.97944 12.0624 6.21618 12.0624C6.45292 12.0624 6.65738 12.1485 6.82956 12.3206L9.88568 15.3983Z" fill="white"/>
</g>
</svg>
