<svg width="200" height="200" viewBox="0 0 200 200" fill="none" xmlns="http://www.w3.org/2000/svg">
<path d="M115.329 117.659C119.614 107.282 129.582 99.3114 129.582 99.3114C133.392 96.0732 141.201 90.6338 145.583 96.0739C146.196 96.8336 146.653 97.6933 146.948 98.5981C147.605 100.598 147.489 102.83 146.604 104.768C144.507 109.36 139.9 112.305 136.382 115.722C133.986 118.047 131.667 120.476 129.483 123.002" fill="#FFCA28"/>
<path d="M87.9915 117.659C83.7059 107.282 73.7388 99.3114 73.7388 99.3114C69.9283 96.0732 62.1198 90.6338 57.7377 96.0739C57.1245 96.8336 56.6668 97.6933 56.3724 98.5981C55.7153 100.598 55.8312 102.83 56.7164 104.768C58.813 109.36 63.4202 112.305 66.9384 115.722C69.3343 118.047 71.6534 120.476 73.8375 123.002" fill="#FFCA28"/>
<path d="M82.4315 103.173H120.952C129.893 112.838 132.086 134.645 132.086 134.645H71.2934C71.2934 134.645 73.4862 112.838 82.4315 103.173Z" fill="#FFD15D"/>
<path d="M59.4195 82.1307C59.4195 75.6453 63.7728 70.1834 69.7121 68.4922C66.617 63.0749 67.3777 56.0554 72.002 51.4351C76.586 46.8511 83.5286 46.0662 88.9257 49.0682C90.5683 43.0521 96.0706 38.626 102.605 38.626C109.139 38.626 114.552 42.9793 116.243 48.9185C121.66 45.8235 128.68 46.5841 133.3 51.2085C137.884 55.7924 138.669 62.7351 135.667 68.1322C141.683 69.7748 146.109 75.2771 146.109 81.8111C146.109 88.3451 141.756 93.7584 135.817 95.4495C138.912 100.867 138.151 107.886 133.527 112.507C128.943 117.091 122 117.876 116.603 114.874C114.961 120.89 109.458 125.316 102.924 125.316C96.3903 125.316 90.9769 120.963 89.2858 115.023C83.8684 118.118 76.853 117.358 72.2286 112.733C67.6447 108.149 66.8598 101.207 69.8618 95.8096C63.8457 94.167 59.4195 88.6688 59.4195 82.1307Z" fill="#F9613C"/>
<path d="M82.9297 65.3597C81.7605 64.2957 78.2932 60.5897 82.3633 57.1305C86.0248 54.0234 89.3909 57.3895 90.107 60.0355C93.2992 58.6882 97.7334 57.6565 103.725 57.9074C109.037 58.1258 113.112 59.4852 116.077 61.0145C116.874 58.3928 120.184 55.2007 123.78 58.2512C127.863 61.7185 124.234 65.5823 123.064 66.6463C125.225 69.3247 131.257 78.2053 127.81 90.4156C124.65 101.602 113.411 106.061 102.673 106.061C95.4799 106.061 88.2176 104.337 83.1523 99.6521C80.656 97.342 78.6938 94.3117 77.5367 90.4156C75.6392 84.0191 76.4321 78.4682 77.9412 74.2039C79.6405 69.4056 82.242 66.2417 82.9338 65.3516L82.9297 65.3597Z" fill="#FFD15D"/>
<path d="M107.095 79.8817C107.095 79.8817 117.25 79.8049 117.25 86.8851C117.25 93.9653 108.924 95.8708 105.23 95.8708C102.491 95.8708 99.5455 95.1102 97.3162 93.6578C95.087 92.2053 93.5779 90.0529 93.7154 87.2734C93.9865 81.7104 101.965 79.376 107.099 79.8817H107.095Z" fill="white"/>
<path d="M110.172 77.4459C110.172 77.4459 109.638 83.1181 105.479 83.1181C102.323 83.1181 102.068 77.3447 102.068 77.3447" stroke="#1B1C1C" stroke-width="2" stroke-linecap="round" stroke-linejoin="round"/>
<path d="M109.219 79.9097C109.219 79.9097 105.97 79.1329 102.745 79.9097C102.745 79.9097 103.15 83.3163 105.472 83.118C107.791 82.9198 109.219 79.9097 109.219 79.9097Z" fill="#1B1C1C"/>
<path d="M105.945 82.3623V86.6266" stroke="#1B1C1C" stroke-width="2" stroke-linecap="round" stroke-linejoin="round"/>
<path d="M109.594 86.5049C109.594 86.5049 106.228 88.8676 102.364 86.5049" stroke="#1B1C1C" stroke-width="2" stroke-linecap="round" stroke-linejoin="round"/>
<path d="M110.654 73.8359C109.738 73.8359 108.995 72.74 108.995 71.3881C108.995 70.0363 109.738 68.9404 110.654 68.9404C111.57 68.9404 112.312 70.0363 112.312 71.3881C112.312 72.74 111.57 73.8359 110.654 73.8359Z" fill="#1B1C1C"/>
<path d="M101.201 73.8359C100.284 73.8359 99.5418 72.74 99.5418 71.3881C99.5418 70.0363 100.284 68.9404 101.201 68.9404C102.117 68.9404 102.859 70.0363 102.859 71.3881C102.859 72.74 102.117 73.8359 101.201 73.8359Z" fill="#1B1C1C"/>
<path d="M120.332 60.0561C120.332 60.0561 121.784 59.8578 122.593 61.0028C123.293 61.99 123.354 62.7425 122.589 63.6569C121.622 64.8099 119.284 62.9934 118.94 62.3582C118.519 61.5773 118.551 60.226 120.328 60.0561H120.332Z" fill="#1B1C1C"/>
<path d="M85.8233 58.6977C85.8233 58.6977 84.3709 58.4994 83.5617 59.6444C82.8618 60.6316 82.8011 61.3841 83.5657 62.2985C84.5327 63.4515 86.8712 61.635 87.2151 60.9998C87.6358 60.2189 87.6035 58.8676 85.8273 58.6977H85.8233Z" fill="#1B1C1C"/>
<path d="M116.424 79.8876L132.094 77.3994" stroke="#1B1C1C" stroke-width="2" stroke-linecap="round" stroke-linejoin="round"/>
<path d="M116.426 83.1582L132.039 84.7199" stroke="#1B1C1C" stroke-width="2" stroke-linecap="round" stroke-linejoin="round"/>
<path d="M96.6797 79.8876L81.0062 77.3994" stroke="#1B1C1C" stroke-width="2" stroke-linecap="round" stroke-linejoin="round"/>
<path d="M96.6797 83.1582L81.0669 84.7199" stroke="#1B1C1C" stroke-width="2" stroke-linecap="round" stroke-linejoin="round"/>
<path d="M13.3354 66.9261C13.3354 66.9261 27.224 66.9261 36.1128 82.4818" stroke="#3196FF" stroke-width="5.45224" stroke-miterlimit="10" stroke-linecap="round"/>
<path d="M182.782 55.8158C182.782 55.8158 168.893 55.8158 160.004 71.3714" stroke="#FA6561" stroke-width="5.45224" stroke-miterlimit="10" stroke-linecap="round"/>
<path d="M11.4701 95.7028L10.7021 95.7648C9.70167 95.8456 8.95403 96.7223 9.03224 97.723L9.09792 98.5634C9.17613 99.5641 10.0506 100.31 11.051 100.229L11.819 100.167C12.8195 100.086 13.5671 99.2094 13.4889 98.2087L13.4232 97.3683C13.345 96.3676 12.4706 95.6219 11.4701 95.7028Z" fill="#FFCA28"/>
<path d="M160.361 119.036L159.593 119.098C158.592 119.179 157.845 120.055 157.923 121.056L157.989 121.896C158.067 122.897 158.941 123.643 159.942 123.562L160.71 123.5C161.71 123.419 162.458 122.542 162.38 121.542L162.314 120.701C162.236 119.701 161.361 118.955 160.361 119.036Z" fill="#FFCA28"/>
<path d="M128.996 16.2613L128.962 17.1039C128.923 18.1069 129.704 18.9531 130.707 18.9941L131.476 19.0256C132.479 19.0665 133.324 18.2867 133.364 17.2838L133.397 16.4411C133.437 15.4382 132.656 14.5919 131.653 14.551L130.883 14.5195C129.881 14.4785 129.035 15.2584 128.996 16.2613Z" fill="#FFC941"/>
<path d="M162.332 31.817L162.298 32.6596C162.259 33.6625 163.04 34.5088 164.042 34.5498L164.812 34.5812C165.815 34.6222 166.66 33.8424 166.7 32.8394L166.733 31.9968C166.773 30.9939 165.992 30.1476 164.989 30.1066L164.219 30.0752C163.216 30.0342 162.371 30.814 162.332 31.817Z" fill="#3196FF"/>
<path d="M48.9415 44.6965L48.2682 44.2838C47.4125 43.7592 46.3037 44.0339 45.7917 44.8972L45.3714 45.6059C44.8594 46.4692 45.1381 47.5943 45.9939 48.1189L46.6671 48.5316C47.5229 49.0561 48.6316 48.7815 49.1436 47.9181L49.5639 47.2095C50.0759 46.3461 49.7972 45.221 48.9415 44.6965Z" fill="#FA6561"/>
<path d="M42.2774 113.585L41.6042 113.172C40.7484 112.648 39.6396 112.923 39.1276 113.786L38.7074 114.495C38.1954 115.358 38.474 116.483 39.3298 117.008L40.0031 117.42C40.8588 117.945 41.9676 117.67 42.4796 116.807L42.8999 116.098C43.4119 115.235 43.1332 114.11 42.2774 113.585Z" fill="#3196FF"/>
<path d="M186.723 88.0295L186.049 87.6168C185.194 87.0922 184.085 87.3669 183.573 88.2302L183.153 88.9389C182.641 89.8022 182.919 90.9273 183.775 91.4519L184.448 91.8646C185.304 92.3891 186.413 92.1145 186.925 91.2512L187.345 90.5425C187.857 89.6791 187.578 88.554 186.723 88.0295Z" fill="#FA6561"/>
<g clip-path="url(#clip0_2202_8854)">
<path d="M102.726 30.9161C101.954 30.9161 101.162 31.858 100.107 33.4889C98.5067 36.0125 97.0745 38.4949 95.3456 41.3438C94.3676 42.9772 93.4026 44.5642 92.6078 45.9241C91.542 47.9136 90.1331 49.8825 91.4414 51.405C93.6193 53.4281 99.8176 54.0964 103.028 54.1299C106.129 54.0783 112.764 53.4203 114.302 51.0102C115.091 49.3509 113.613 47.3408 112.676 45.5989C111.822 44.1487 110.8 42.4688 109.778 40.7632C108.532 38.6936 107.285 36.6035 106.253 34.9081C105.446 33.5843 103.789 30.7768 102.746 30.9161H102.726Z" fill="#F8BBD0"/>
<path d="M102.695 32.3251C103.951 32.3251 104.969 31.3073 104.969 30.0517C104.969 28.7961 103.951 27.7783 102.695 27.7783C101.44 27.7783 100.422 28.7961 100.422 30.0517C100.422 31.3073 101.44 32.3251 102.695 32.3251Z" fill="#F06292"/>
<mask id="mask0_2202_8854" style="mask-type:luminance" maskUnits="userSpaceOnUse" x="90" y="30" width="25" height="25">
<path d="M102.726 30.9152C101.954 30.9152 101.162 31.857 100.107 33.4879C98.5067 36.0116 97.0745 38.494 95.3456 41.3428C94.3676 42.9762 93.4026 44.5632 92.6078 45.9231C91.542 47.9126 90.1331 49.8815 91.4414 51.404C93.6193 53.4271 99.8176 54.0954 103.028 54.129C106.129 54.0774 112.764 53.4193 114.302 51.0092C115.091 49.35 113.613 47.3398 112.676 45.598C111.822 44.1477 110.8 42.4679 109.778 40.7622C108.532 38.6927 107.285 36.6025 106.253 34.9071C105.446 33.5834 103.789 30.7758 102.746 30.9152H102.726Z" fill="white"/>
</mask>
<g mask="url(#mask0_2202_8854)">
<path fill-rule="evenodd" clip-rule="evenodd" d="M92.9766 38.8448C92.9759 38.8445 92.9753 38.8443 93.6942 37.0474C94.4132 35.2506 94.4126 35.2503 94.412 35.2501L94.4097 35.2492C94.409 35.2489 94.4089 35.2488 94.4092 35.249L94.4172 35.2521C94.4265 35.2557 94.4436 35.2622 94.4683 35.2715C94.5178 35.29 94.5976 35.3191 94.7058 35.3565C94.9225 35.4312 95.2522 35.5388 95.68 35.6599C96.537 35.9025 97.7792 36.1973 99.2871 36.394C102.314 36.7889 106.333 36.7791 110.448 35.2354L111.808 38.8595C106.925 40.6909 102.227 40.6811 98.7863 40.2322C97.0606 40.007 95.6316 39.669 94.6257 39.3842C94.1221 39.2416 93.7225 39.1118 93.4427 39.0152C93.3027 38.9669 93.1925 38.9268 93.114 38.8975C93.0747 38.8828 93.0434 38.8709 93.0202 38.8619C93.0086 38.8574 92.999 38.8537 92.9915 38.8507L92.9818 38.8469L92.9782 38.8454L92.9766 38.8448Z" fill="#FCE3ED"/>
<path fill-rule="evenodd" clip-rule="evenodd" d="M87.7813 46.4264C87.7805 46.426 87.7797 46.4257 88.6463 44.6952C89.5129 42.9647 89.5123 42.9644 89.5117 42.9641L89.5113 42.9639C89.5139 42.9652 89.5197 42.968 89.5286 42.9723C89.5465 42.981 89.5767 42.9955 89.619 43.0152C89.7037 43.0548 89.8364 43.1154 90.0143 43.1923C90.3702 43.3461 90.9058 43.5645 91.5969 43.8094C92.9809 44.2998 94.9777 44.8924 97.3973 45.2875C102.241 46.0785 108.705 46.0684 115.36 42.9434L117.005 46.447C109.449 49.995 102.145 49.9849 96.7735 49.1076C94.0854 48.6686 91.8627 48.01 90.3041 47.4578C89.5239 47.1813 88.9073 46.9305 88.479 46.7455C88.2648 46.6529 88.0974 46.5767 87.9799 46.5217C87.9211 46.4943 87.8748 46.4721 87.8413 46.4559C87.8246 46.4478 87.8111 46.4412 87.8008 46.4361L87.7878 46.4297L87.7832 46.4274L87.7813 46.4264ZM89.5098 42.9631L89.5107 42.9636L89.5113 42.9639C89.5105 42.9635 89.51 42.9632 89.5098 42.9631ZM89.5097 42.9631L89.5098 42.9631L89.5097 42.9631Z" fill="#FCE3ED"/>
</g>
</g>
<path d="M52.7555 178.903C51.4787 180.64 49.0682 181.324 46.9642 181.804C41.847 182.846 36.6175 183.949 31.4901 185.175C29.2431 185.614 25.9644 186.697 24.2587 184.889C22.9002 183.03 23.8808 179.833 24.3506 177.443C25.9644 171.876 25.5967 166.208 21.3171 161.948C18.2223 158.22 12.0531 153.971 17.7933 151.326C24.8919 148.977 32.5013 147.761 39.8042 146.209C45.6874 144.922 48.8844 147.026 49.8241 153.011C51.0395 159.364 52.255 165.779 53.4398 172.132C53.8177 174.317 54.1139 176.963 52.8372 178.791L52.7453 178.914L52.7555 178.903Z" fill="#3186F0"/>
<path d="M158.784 146.72C160.725 145.484 163.391 145.821 165.648 146.22C171.971 147.435 178.354 148.824 184.626 150.356C186.536 150.898 189.416 151.51 189.998 153.482C189.855 159.63 178.528 162.541 180.346 173.419C180.673 177.587 183.574 183.153 180.571 185.41C178.967 186.289 176.475 185.707 174.626 185.318C169.294 184.042 163.82 182.888 158.488 181.795C155.21 181.172 151.727 179.456 151.727 175.697C152.207 168.108 154.433 160.55 155.618 153.022C156.067 150.775 156.752 148.109 158.662 146.812L158.795 146.73L158.784 146.72Z" fill="#3186F0"/>
<path d="M169.307 172.04C167.53 173.46 164.496 172.928 162.198 172.356C122.19 162.766 81.0387 163.215 41.0615 172.785C36.2507 173.807 33.922 170.426 33.0742 165.391C32.0528 160.151 31.0519 154.799 30.0713 149.539C28.6414 142.644 30.7454 139.284 36.7819 138.109C80.9978 127.548 126.715 127.466 170.839 138.732C172.739 139.386 174.22 140.367 175.017 141.878C176.304 144.34 175.742 147.618 175.242 150.356C174.281 155.422 173.331 160.559 172.351 165.595C171.871 167.934 171.115 170.641 169.42 171.968L169.317 172.05L169.307 172.04Z" fill="#48A4FF"/>
<g clip-path="url(#clip1_2202_8854)">
<path d="M69.7045 143.971C69.8289 143.951 69.9325 144.002 70.0154 144.116C70.0983 144.23 70.1294 144.375 70.1087 144.552C69.3522 149.06 69.0102 151.319 68.3677 155.827C68.3677 156.003 68.3262 156.148 68.2433 156.272C68.1604 156.397 68.0672 156.479 67.9532 156.521C66.9998 156.656 66.5231 156.718 65.5697 156.863C65.4557 156.863 65.3417 156.801 65.2173 156.707C65.093 156.614 65.0101 156.479 64.9583 156.314C64.0256 154.459 63.5593 153.536 62.6059 151.681C62.2639 153.733 62.0981 154.759 61.7872 156.811C61.7872 157.008 61.7354 157.174 61.6421 157.308C61.5488 157.433 61.4452 157.505 61.3209 157.526C60.4193 157.682 59.9633 157.754 59.0617 157.91C58.9374 157.93 58.813 157.899 58.6783 157.806C58.5539 157.713 58.4503 157.578 58.3985 157.391C56.3984 153.298 55.3725 151.256 53.2688 147.194C53.1963 147.028 53.1859 146.883 53.2274 146.749C53.2688 146.614 53.3517 146.541 53.4864 146.51C54.5849 146.303 55.1342 146.199 56.243 146.002C56.3881 145.982 56.5124 146.013 56.6368 146.106C56.7611 146.199 56.8544 146.344 56.927 146.51C57.9322 148.873 58.44 150.054 59.4141 152.417C59.6421 150.282 59.7664 149.225 60.0255 147.091C60.0255 146.904 60.0773 146.738 60.1602 146.614C60.2431 146.479 60.3571 146.407 60.5022 146.386C61.497 146.22 62.0048 146.148 62.9997 145.992C63.1447 145.971 63.2691 146.013 63.3935 146.106C63.5178 146.21 63.6111 146.344 63.6733 146.521C64.5645 148.469 64.9997 149.453 65.8702 151.412C66.0878 148.852 66.2018 147.578 66.4505 145.028C66.4609 144.842 66.5127 144.676 66.606 144.552C66.6889 144.417 66.8029 144.344 66.948 144.324C68.0568 144.168 68.606 144.096 69.7149 143.961L69.7045 143.971Z" fill="white"/>
<path d="M84.3248 151.609C84.3662 152.189 84.304 152.686 84.1382 153.111C83.9724 153.536 83.7237 153.899 83.3817 154.21C83.0398 154.521 82.6356 154.759 82.1693 154.935C81.7029 155.111 81.1848 155.215 80.6252 155.267C78.8946 155.422 78.0241 155.505 76.2935 155.681C75.1535 155.795 74.1794 155.536 73.3504 154.894C72.9462 154.583 72.625 154.199 72.3866 153.764C72.1483 153.318 71.9928 152.811 71.9203 152.241C71.7027 150.438 71.599 149.536 71.3814 147.733C71.3089 147.163 71.3399 146.624 71.485 146.127C71.6197 145.629 71.8581 145.184 72.1897 144.79C72.8737 143.971 73.8167 143.484 75.0084 143.36C76.822 143.173 77.7339 143.08 79.5578 142.924C80.1381 142.873 80.6977 142.945 81.2159 143.142C81.7444 143.339 82.2107 143.619 82.6045 143.992C83.0087 144.365 83.3299 144.81 83.5683 145.329C83.8066 145.847 83.9413 146.386 83.9828 146.966L84.1486 149.287C84.159 149.474 84.1071 149.629 84.0035 149.754C83.8895 149.878 83.7444 149.95 83.5683 149.961C80.4076 150.189 78.8324 150.324 75.682 150.645C75.7235 151.039 75.7442 151.225 75.7857 151.619C75.8064 151.826 75.8686 151.992 75.9618 152.116C76.0551 152.241 76.1691 152.334 76.2831 152.396C76.4074 152.458 76.5214 152.5 76.6458 152.521C76.7702 152.541 76.8634 152.541 76.936 152.541C78.0448 152.427 78.6044 152.375 79.7132 152.282C79.8894 152.261 80.0552 152.23 80.2107 152.168C80.3661 152.106 80.4386 151.961 80.4179 151.712C80.4179 151.702 80.4179 151.691 80.4179 151.671C80.4076 151.495 80.449 151.349 80.563 151.225C80.6666 151.101 80.8117 151.028 80.9879 151.008C82.0449 150.914 82.5734 150.873 83.6304 150.8C83.8066 150.79 83.9621 150.831 84.0864 150.945C84.2108 151.049 84.2833 151.194 84.2937 151.37C84.2937 151.463 84.2937 151.515 84.3144 151.609H84.3248ZM76.3349 146.334C76.0033 146.365 75.7546 146.51 75.5888 146.759C75.423 147.007 75.3608 147.349 75.4022 147.785C77.2676 147.588 78.2002 147.505 80.0656 147.339C80.0241 146.914 79.8998 146.583 79.6925 146.365C79.4853 146.147 79.2055 146.054 78.8738 146.085C77.8583 146.178 77.3505 146.23 76.3349 146.323V146.334Z" fill="white"/>
<path d="M88.4472 138.883C88.6338 138.883 88.7892 138.924 88.9239 139.038C89.0586 139.152 89.1208 139.287 89.1312 139.463C89.4214 145.204 89.5561 148.075 89.8462 153.816C89.8462 154.002 89.8048 154.147 89.6908 154.272C89.5768 154.386 89.4317 154.448 89.2659 154.458C88.1985 154.51 87.67 154.541 86.613 154.614C86.4368 154.624 86.2917 154.583 86.1777 154.479C86.0637 154.375 85.9912 154.23 85.9808 154.044C85.6078 148.303 85.4212 145.432 85.0482 139.701C85.0378 139.525 85.0896 139.38 85.1933 139.256C85.3073 139.132 85.4523 139.059 85.6389 139.049C86.7684 138.976 87.328 138.945 88.4576 138.883H88.4472Z" fill="white"/>
<path d="M103.206 150.417C103.206 150.998 103.102 151.516 102.905 151.982C102.708 152.448 102.429 152.863 102.076 153.215C101.724 153.568 101.299 153.847 100.812 154.044C100.335 154.241 99.8067 154.335 99.2575 154.345C97.672 154.366 96.874 154.376 95.2781 154.428C94.1382 154.459 93.1848 154.127 92.4076 153.412C92.0345 153.07 91.7443 152.666 91.5371 152.21C91.3298 151.754 91.2158 151.236 91.1847 150.656C91.1018 148.842 91.0604 147.93 90.9878 146.117C90.9671 145.536 91.0396 145.008 91.2055 144.521C91.3816 144.034 91.6407 143.609 92.0034 143.236C92.7495 142.469 93.7237 142.065 94.9258 142.023C96.5942 141.972 97.4336 141.961 99.102 141.94C99.6824 141.94 100.232 142.023 100.739 142.21C101.247 142.396 101.693 142.666 102.066 143.029C102.439 143.381 102.729 143.806 102.926 144.272C103.123 144.738 103.227 145.277 103.216 145.858C103.216 146.055 103.216 146.158 103.216 146.355C103.216 146.542 103.154 146.687 103.03 146.801C102.905 146.915 102.76 146.966 102.584 146.966C101.517 146.966 100.978 146.966 99.9104 146.977C99.7342 146.977 99.5891 146.925 99.4647 146.811C99.3508 146.697 99.2886 146.552 99.2886 146.365C99.2886 146.241 99.2886 146.179 99.2886 146.055C99.2886 145.847 99.2471 145.671 99.1539 145.526C99.071 145.381 98.9673 145.277 98.8533 145.205C98.7393 145.132 98.615 145.08 98.4906 145.049C98.3663 145.018 98.2626 145.008 98.1694 145.008C97.3092 145.018 96.874 145.029 96.0139 145.049C95.9206 145.049 95.817 145.07 95.703 145.101C95.589 145.132 95.475 145.194 95.361 145.267C95.247 145.339 95.1537 145.453 95.0708 145.599C94.9879 145.744 94.9569 145.92 94.9569 146.127C95.0087 147.796 95.0294 148.635 95.0812 150.303C95.0812 150.511 95.133 150.687 95.2159 150.822C95.2988 150.956 95.4025 151.06 95.5165 151.132C95.6304 151.205 95.7444 151.257 95.8584 151.277C95.9724 151.309 96.0761 151.319 96.159 151.319C96.9984 151.298 97.4232 151.288 98.2626 151.277C98.3455 151.277 98.4492 151.257 98.5735 151.226C98.6875 151.195 98.8119 151.143 98.9155 151.06C99.0295 150.987 99.1228 150.873 99.2057 150.739C99.2886 150.604 99.3197 150.428 99.3197 150.22C99.3197 149.93 99.3197 149.785 99.3197 149.495C99.3197 149.319 99.3715 149.174 99.4855 149.06C99.5995 148.946 99.7445 148.884 99.9207 148.884C100.988 148.884 101.517 148.873 102.574 148.873C102.75 148.873 102.895 148.935 103.019 149.049C103.133 149.163 103.195 149.309 103.195 149.485C103.195 149.847 103.195 150.024 103.195 150.386L103.206 150.417Z" fill="white"/>
<path d="M110.585 154.77C109.497 154.739 108.585 154.583 107.86 154.324C107.124 154.065 106.544 153.682 106.098 153.216C105.642 152.739 105.3 152.159 105.103 151.454C104.906 150.76 104.803 149.941 104.813 148.998C104.813 148.355 104.813 148.034 104.824 147.392C104.824 146.469 104.948 145.661 105.166 144.956C105.383 144.252 105.756 143.671 106.243 143.215C106.72 142.77 107.342 142.407 108.119 142.179C108.896 141.951 109.86 141.847 111 141.889C111.456 141.899 111.694 141.91 112.15 141.93C113.28 141.972 114.233 142.138 114.99 142.417C115.746 142.697 116.378 143.091 116.824 143.588C117.259 144.065 117.57 144.687 117.746 145.402C117.922 146.117 117.985 146.936 117.922 147.858C117.881 148.5 117.86 148.822 117.829 149.464C117.777 150.397 117.611 151.205 117.363 151.889C117.104 152.573 116.741 153.143 116.275 153.578C115.788 154.024 115.155 154.345 114.409 154.552C113.663 154.76 112.751 154.843 111.674 154.801C111.238 154.78 111.021 154.78 110.575 154.76L110.585 154.77ZM111.083 145.06C110.71 145.05 110.388 145.112 110.109 145.246C109.839 145.381 109.591 145.578 109.394 145.816C109.207 146.055 109.062 146.345 108.958 146.666C108.855 146.987 108.803 147.329 108.793 147.671C108.782 148.148 108.772 148.397 108.762 148.873C108.741 149.609 108.907 150.231 109.259 150.739C109.445 150.998 109.663 151.216 109.922 151.371C110.181 151.526 110.492 151.609 110.855 151.62C111.166 151.62 111.321 151.64 111.622 151.651C111.984 151.661 112.295 151.599 112.575 151.464C112.845 151.33 113.083 151.133 113.28 150.884C113.663 150.407 113.881 149.796 113.912 149.06C113.933 148.583 113.943 148.345 113.964 147.858C113.984 147.516 113.943 147.174 113.87 146.842C113.788 146.511 113.663 146.21 113.497 145.961C113.321 145.713 113.093 145.495 112.834 145.34C112.575 145.184 112.254 145.091 111.881 145.081C111.56 145.07 111.404 145.06 111.093 145.05L111.083 145.06Z" fill="white"/>
<path d="M132.694 149.329C132.808 148.365 132.746 147.64 132.507 147.163C132.269 146.687 131.927 146.386 131.554 146.345C131.191 146.303 130.808 146.521 130.466 146.935C130.134 147.339 129.917 148.034 129.803 148.997C129.543 151.412 129.409 152.625 129.15 155.039C129.129 155.091 129.119 155.112 129.098 155.163C129.088 155.174 129.077 155.195 129.077 155.215C129.046 155.246 129.036 155.267 129.015 155.298C128.953 155.35 128.932 155.381 128.87 155.433C128.849 155.433 128.818 155.433 128.787 155.464C128.756 155.485 128.725 155.495 128.683 155.495C128.642 155.495 128.6 155.495 128.58 155.516C127.564 155.412 127.056 155.36 126.041 155.257C125.968 155.257 125.927 155.236 125.916 155.226H125.896C125.896 155.226 125.875 155.226 125.875 155.215C125.875 155.215 125.875 155.215 125.854 155.205C125.844 155.205 125.834 155.205 125.823 155.184C125.813 155.184 125.802 155.184 125.792 155.174C125.782 155.174 125.771 155.163 125.751 155.163C125.73 155.132 125.709 155.122 125.699 155.122C125.657 155.101 125.616 155.049 125.564 154.946C125.554 154.925 125.543 154.925 125.533 154.904C125.523 154.904 125.512 154.873 125.502 154.811C125.502 154.811 125.502 154.801 125.481 154.79C125.481 154.78 125.481 154.77 125.481 154.759C125.481 154.749 125.481 154.739 125.481 154.728C125.709 152.231 125.823 150.987 126.062 148.49C126.124 147.567 126.03 146.883 125.792 146.438C125.554 145.992 125.212 145.712 124.849 145.681C124.476 145.65 124.082 145.878 123.761 146.293C123.44 146.707 123.232 147.402 123.16 148.376C122.963 150.77 122.87 151.972 122.673 154.366C122.662 154.542 122.59 154.676 122.476 154.78C122.352 154.884 122.206 154.935 122.03 154.925C121.046 154.842 120.548 154.811 119.564 154.739C119.388 154.728 119.253 154.656 119.139 154.531C119.025 154.407 118.984 154.262 118.994 154.086C119.16 151.619 119.243 150.376 119.408 147.909C119.543 145.909 120.041 144.469 120.921 143.609C121.802 142.749 123.025 142.376 124.569 142.5C125.025 142.541 125.243 142.562 125.699 142.593C126.279 142.645 126.797 142.79 127.243 143.039C127.689 143.287 128.082 143.609 128.424 144.003C128.839 143.681 129.284 143.453 129.771 143.298C130.259 143.142 130.797 143.101 131.378 143.163C131.834 143.215 132.051 143.236 132.507 143.287C134.031 143.464 135.15 144.075 135.855 145.091C136.549 146.117 136.766 147.619 136.497 149.609C136.425 150.127 136.393 150.386 136.321 150.904C136.331 150.904 136.342 150.904 136.362 150.904C136.103 152.842 135.979 153.806 135.72 155.744C135.699 155.91 135.616 156.055 135.492 156.148C135.357 156.252 135.202 156.283 135.036 156.262C134.041 156.127 133.554 156.065 132.559 155.951C132.383 155.93 132.248 155.858 132.145 155.723C132.041 155.588 132 155.443 132.02 155.267C132.3 152.884 132.445 151.692 132.725 149.308L132.694 149.329Z" fill="white"/>
<path d="M149.882 155.463C149.779 156.033 149.582 156.5 149.313 156.873C149.043 157.246 148.711 157.536 148.297 157.743C147.882 157.95 147.437 158.085 146.929 158.127C146.432 158.178 145.903 158.147 145.354 158.054C143.634 157.754 142.773 157.608 141.053 157.339C139.924 157.163 139.043 156.655 138.411 155.816C138.1 155.411 137.893 154.966 137.768 154.468C137.644 153.981 137.623 153.443 137.706 152.873C137.955 151.069 138.089 150.168 138.338 148.375C138.421 147.805 138.587 147.297 138.846 146.852C139.105 146.406 139.447 146.033 139.872 145.743C140.753 145.121 141.789 144.903 142.97 145.09C144.784 145.37 145.685 145.525 147.489 145.836C148.069 145.94 148.587 146.147 149.043 146.479C149.499 146.81 149.882 147.204 150.173 147.65C150.473 148.116 150.66 148.634 150.763 149.194C150.867 149.753 150.857 150.313 150.743 150.883C150.566 151.795 150.484 152.251 150.307 153.173C150.276 153.36 150.183 153.494 150.048 153.588C149.903 153.681 149.748 153.712 149.572 153.681C146.452 153.09 144.888 152.81 141.758 152.313C141.696 152.696 141.665 152.893 141.602 153.277C141.571 153.484 141.582 153.66 141.644 153.805C141.706 153.95 141.789 154.075 141.882 154.158C141.986 154.251 142.09 154.313 142.204 154.365C142.318 154.417 142.411 154.448 142.483 154.458C143.582 154.634 144.141 154.728 145.24 154.914C145.416 154.945 145.582 154.956 145.758 154.935C145.924 154.924 146.027 154.79 146.079 154.551C146.079 154.541 146.079 154.531 146.079 154.51C146.11 154.344 146.193 154.209 146.328 154.116C146.463 154.023 146.618 153.992 146.794 154.023C147.841 154.209 148.359 154.303 149.406 154.5C149.582 154.531 149.717 154.614 149.81 154.759C149.903 154.893 149.934 155.049 149.903 155.215C149.882 155.308 149.872 155.36 149.862 155.453L149.882 155.463ZM143.489 148.302C143.157 148.251 142.877 148.323 142.649 148.52C142.421 148.717 142.276 149.038 142.214 149.463C144.069 149.753 144.991 149.909 146.846 150.23C146.919 149.805 146.888 149.463 146.732 149.194C146.587 148.935 146.338 148.769 146.007 148.717C145.002 148.541 144.494 148.458 143.489 148.302Z" fill="white"/>
</g>
<defs>
<clipPath id="clip0_2202_8854">
<rect width="29.2263" height="26.3516" fill="white" transform="translate(87.7812 27.7783)"/>
</clipPath>
<clipPath id="clip1_2202_8854">
<rect width="99.7333" height="20.5394" fill="white" transform="translate(52.4844 138.521)"/>
</clipPath>
</defs>
</svg>
