<svg width="16" height="16" viewBox="0 0 16 16" fill="none" xmlns="http://www.w3.org/2000/svg">
<mask id="mask0_2652_12745" style="mask-type:alpha" maskUnits="userSpaceOnUse" x="0" y="0" width="16" height="16">
<rect width="16" height="16" fill="#D9D9D9"/>
</mask>
<g mask="url(#mask0_2652_12745)">
<path d="M4.51404 10.717L5.54649 11.7495C5.65517 11.8581 5.70725 11.9849 5.70272 12.1298C5.69819 12.2747 5.64159 12.4015 5.53291 12.5102C5.42423 12.6098 5.29744 12.6619 5.15253 12.6664C5.00763 12.671 4.88083 12.6189 4.77216 12.5102L2.81594 10.554C2.7616 10.4997 2.72311 10.4408 2.70047 10.3774C2.67782 10.314 2.6665 10.2461 2.6665 10.1736C2.6665 10.1012 2.67782 10.0332 2.70047 9.96984C2.72311 9.90645 2.7616 9.84758 2.81594 9.79324L4.77216 7.83702C4.87178 7.7374 4.99631 7.68759 5.14574 7.68759C5.29517 7.68759 5.42423 7.7374 5.53291 7.83702C5.64159 7.9457 5.69592 8.07476 5.69592 8.22419C5.69592 8.37362 5.64159 8.50268 5.53291 8.61136L4.51404 9.63022H12.2167C12.3706 9.63022 12.4997 9.6823 12.6038 9.78645C12.708 9.8906 12.76 10.0197 12.76 10.1736C12.76 10.3276 12.708 10.4566 12.6038 10.5608C12.4997 10.6649 12.3706 10.717 12.2167 10.717H4.51404ZM11.225 6.36986H3.52235C3.36839 6.36986 3.23933 6.31778 3.13518 6.21363C3.03103 6.10948 2.97896 5.98043 2.97896 5.82647C2.97896 5.6725 3.03103 5.54345 3.13518 5.4393C3.23933 5.33515 3.36839 5.28307 3.52235 5.28307H11.225L10.1925 4.25062C10.0838 4.14194 10.0318 4.01515 10.0363 3.87025C10.0408 3.72534 10.0974 3.59855 10.2061 3.48987C10.3148 3.39025 10.4416 3.33817 10.5865 3.33365C10.7314 3.32912 10.8582 3.38119 10.9668 3.48987L12.9231 5.44609C12.9774 5.50043 13.0159 5.5593 13.0385 5.62269C13.0612 5.68609 13.0725 5.75401 13.0725 5.82647C13.0725 5.89892 13.0612 5.96684 13.0385 6.03024C13.0159 6.09363 12.9774 6.1525 12.9231 6.20684L10.9668 8.16306C10.8672 8.26268 10.7427 8.31249 10.5933 8.31249C10.4438 8.31249 10.3148 8.26268 10.2061 8.16306C10.0974 8.05438 10.0431 7.92532 10.0431 7.77589C10.0431 7.62646 10.0974 7.4974 10.2061 7.38872L11.225 6.36986Z" fill="white"/>
</g>
</svg>
