<svg width="24" height="24" viewBox="0 0 24 24" fill="none" xmlns="http://www.w3.org/2000/svg">
<g id="edit_line">
<mask id="mask0_2579_13151" style="mask-type:alpha" maskUnits="userSpaceOnUse" x="0" y="0" width="24" height="24">
<rect id="Bounding box" width="24" height="24" fill="#D9D9D9"/>
</mask>
<g mask="url(#mask0_2579_13151)">
<path id="edit" d="M5.77778 18.2222H7.04444L15.7333 9.53333L14.4667 8.26667L5.77778 16.9556V18.2222ZM4.88889 20C4.63704 20 4.42593 19.9148 4.25556 19.7444C4.08519 19.5741 4 19.363 4 19.1111V16.9556C4 16.7185 4.04444 16.4926 4.13333 16.2778C4.22222 16.063 4.34815 15.8741 4.51111 15.7111L15.7333 4.51111C15.9111 4.34815 16.1074 4.22222 16.3222 4.13333C16.537 4.04444 16.763 4 17 4C17.237 4 17.4667 4.04444 17.6889 4.13333C17.9111 4.22222 18.1037 4.35556 18.2667 4.53333L19.4889 5.77778C19.6667 5.94074 19.7963 6.13333 19.8778 6.35556C19.9593 6.57778 20 6.8 20 7.02222C20 7.25926 19.9593 7.48519 19.8778 7.7C19.7963 7.91481 19.6667 8.11111 19.4889 8.28889L8.28889 19.4889C8.12593 19.6519 7.93704 19.7778 7.72222 19.8667C7.50741 19.9556 7.28148 20 7.04444 20H4.88889ZM15.0889 8.91111L14.4667 8.26667L15.7333 9.53333L15.0889 8.91111Z" fill="white"/>
</g>
</g>
</svg>
