<svg width="20" height="20" viewBox="0 0 20 20" fill="none" xmlns="http://www.w3.org/2000/svg">
<g id="upload">
<mask id="mask0_2697_5574" style="mask-type:alpha" maskUnits="userSpaceOnUse" x="0" y="0" width="20" height="20">
<rect id="Bounding box" width="20" height="20" fill="#D9D9D9"/>
</mask>
<g mask="url(#mask0_2697_5574)">
<path id="upload_2" d="M5.00016 16.6667C4.54183 16.6667 4.14947 16.5035 3.82308 16.1771C3.49669 15.8507 3.3335 15.4583 3.3335 15V13.3333C3.3335 13.0972 3.41336 12.8993 3.57308 12.7396C3.7328 12.5799 3.93072 12.5 4.16683 12.5C4.40294 12.5 4.60086 12.5799 4.76058 12.7396C4.9203 12.8993 5.00016 13.0972 5.00016 13.3333V15H15.0002V13.3333C15.0002 13.0972 15.08 12.8993 15.2397 12.7396C15.3995 12.5799 15.5974 12.5 15.8335 12.5C16.0696 12.5 16.2675 12.5799 16.4272 12.7396C16.587 12.8993 16.6668 13.0972 16.6668 13.3333V15C16.6668 15.4583 16.5036 15.8507 16.1772 16.1771C15.8509 16.5035 15.4585 16.6667 15.0002 16.6667H5.00016ZM9.16683 6.54167L7.60433 8.10417C7.43766 8.27083 7.23975 8.35069 7.01058 8.34375C6.78141 8.33681 6.5835 8.25 6.41683 8.08333C6.26405 7.91667 6.18419 7.72222 6.17725 7.5C6.1703 7.27778 6.25016 7.08333 6.41683 6.91667L9.41683 3.91667C9.50016 3.83333 9.59044 3.77431 9.68766 3.73958C9.78488 3.70486 9.88905 3.6875 10.0002 3.6875C10.1113 3.6875 10.2154 3.70486 10.3127 3.73958C10.4099 3.77431 10.5002 3.83333 10.5835 3.91667L13.5835 6.91667C13.7502 7.08333 13.83 7.27778 13.8231 7.5C13.8161 7.72222 13.7363 7.91667 13.5835 8.08333C13.4168 8.25 13.2189 8.33681 12.9897 8.34375C12.7606 8.35069 12.5627 8.27083 12.396 8.10417L10.8335 6.54167V12.5C10.8335 12.7361 10.7536 12.934 10.5939 13.0938C10.4342 13.2535 10.2363 13.3333 10.0002 13.3333C9.76405 13.3333 9.56613 13.2535 9.40641 13.0938C9.24669 12.934 9.16683 12.7361 9.16683 12.5V6.54167Z" fill="#BDBDBD"/>
</g>
</g>
</svg>
