<svg width="181" height="240" viewBox="0 0 181 240" fill="none" xmlns="http://www.w3.org/2000/svg">
<path d="M70.0123 157.987C59.9723 158.307 44.2323 156.587 41.5123 155.387C38.5823 159.117 34.2523 158.047 34.2523 158.047C34.2523 158.047 30.0923 156.947 30.6823 152.067C31.2723 147.187 32.0123 135.587 38.7423 137.057C45.4723 138.527 44.0423 140.247 47.7623 140.927C50.2623 141.387 65.2423 141.977 68.2323 142.327C68.5123 146.687 69.0523 152.007 70.0023 157.987H70.0123Z" fill="#00B56D"/>
<path d="M50.8219 69.7618L36.5742 180.065L44.0918 181.036L58.3394 70.7328L50.8219 69.7618Z" fill="#2D62CA"/>
<path d="M29.9097 24.8479L49.4097 9.58789L74.0197 12.5479L89.3197 31.9979L86.3497 56.5479L66.8397 71.8079L42.2297 68.8479L26.9297 49.3979L29.8997 24.8479H29.9097Z" fill="#3196FF"/>
<path d="M35.3492 27.9079L51.0892 15.5879L70.9492 17.9779L83.2992 33.6779L80.8992 53.4879L65.1592 65.8079L45.2992 63.4179L32.9492 47.7179L35.3492 27.9079Z" stroke="white" stroke-width="1.33"/>
<path d="M58.3698 70.7779L50.8398 69.8779L56.4498 85.5379L58.3698 70.7779Z" fill="black"/>
<path d="M49.4102 9.58789L79.3802 62.0079L86.3502 56.5479L89.3202 31.9979L74.0202 12.5479L49.4102 9.58789Z" fill="#2F74DC" fill-opacity="0.3"/>
<path d="M42.4397 34.2383L49.6497 35.1683L49.4097 37.0483L44.3597 36.3983L44.0997 38.3783L48.7297 38.9783L48.4897 40.8583L43.8597 40.2583L43.5897 42.3383L48.7397 43.0083L48.4997 44.8883L41.1797 43.9383L42.4397 34.2383ZM50.7997 38.0883L52.9197 38.3583L52.8297 39.0683C53.3397 38.5383 54.0297 38.3283 54.8997 38.4383C55.2797 38.4883 55.5797 38.5683 55.7997 38.6783L55.5697 40.6683C55.2897 40.4683 54.9397 40.3483 54.5197 40.2883C53.9597 40.2183 53.4897 40.3083 53.1297 40.5683C52.7697 40.8283 52.5597 41.2283 52.4897 41.7583L52.0297 45.3283L49.9097 45.0583L50.8197 38.0883H50.7997ZM56.8197 38.8683L58.9397 39.1383L58.8497 39.8483C59.3597 39.3183 60.0497 39.1083 60.9197 39.2183C61.2997 39.2683 61.5997 39.3483 61.8197 39.4583L61.5897 41.4483C61.3097 41.2483 60.9597 41.1283 60.5397 41.0683C59.9797 40.9983 59.5097 41.0883 59.1497 41.3483C58.7897 41.6083 58.5797 42.0083 58.5097 42.5383L58.0497 46.1083L55.9297 45.8383L56.8397 38.8683H56.8197ZM65.9497 39.8783C66.6597 39.9683 67.2697 40.2083 67.7897 40.5983C68.3097 40.9783 68.6997 41.4683 68.9397 42.0683C69.1897 42.6683 69.2597 43.3083 69.1697 44.0083C69.0797 44.7083 68.8397 45.3083 68.4497 45.8283C68.0597 46.3383 67.5597 46.7183 66.9597 46.9583C66.3597 47.1983 65.6997 47.2783 64.9897 47.1883C64.2797 47.0983 63.6697 46.8583 63.1497 46.4683C62.6297 46.0883 62.2397 45.5983 61.9997 44.9983C61.7497 44.3983 61.6797 43.7583 61.7697 43.0583C61.8597 42.3583 62.0997 41.7583 62.4897 41.2383C62.8797 40.7283 63.3797 40.3483 63.9797 40.1083C64.5797 39.8683 65.2397 39.7883 65.9497 39.8783ZM65.7197 41.6883C65.2297 41.6283 64.7997 41.7483 64.4497 42.0583C64.0997 42.3583 63.8997 42.7783 63.8297 43.3183C63.7597 43.8583 63.8497 44.3183 64.1097 44.7083C64.3797 45.0883 64.7497 45.3083 65.2497 45.3783C65.7397 45.4383 66.1597 45.3183 66.5097 45.0183C66.8597 44.7083 67.0797 44.2883 67.1497 43.7483C67.2197 43.2083 67.1197 42.7483 66.8597 42.3683C66.5997 41.9783 66.2297 41.7583 65.7397 41.6883H65.7197ZM70.8697 40.6783L72.9897 40.9483L72.8997 41.6583C73.4097 41.1283 74.0997 40.9183 74.9697 41.0283C75.3497 41.0783 75.6497 41.1583 75.8697 41.2683L75.6397 43.2583C75.3597 43.0583 75.0097 42.9383 74.5897 42.8783C74.0297 42.8083 73.5597 42.8983 73.1997 43.1583C72.8397 43.4183 72.6297 43.8183 72.5597 44.3483L72.0997 47.9183L69.9797 47.6483L70.8897 40.6783H70.8697Z" fill="white"/>
<path d="M37.5423 140.348C37.5423 140.348 45.6923 142.998 43.4023 151.378C42.9323 153.108 42.2623 154.408 41.5023 155.388C41.5023 155.388 36.6423 161.378 32.6523 157.248" fill="#00B56D"/>
<path d="M77.201 203.068C62.281 181.008 61.111 136.168 61.111 136.168C61.021 133.718 61.011 131.748 61.021 130.328C47.911 133.938 32.221 133.658 22.031 131.608C11.191 129.428 3.97099 121.518 4.46099 112.958C4.95099 104.388 10.711 105.038 13.001 108.758C13.671 102.548 19.851 103.998 21.531 104.718C23.211 105.428 25.851 105.738 28.531 105.588C31.191 105.428 57.501 100.208 57.501 100.208C57.501 100.208 59.121 85.4678 70.111 84.9878C76.071 84.8678 76.441 92.0678 76.441 92.0678C76.441 92.0678 83.151 84.3278 91.431 87.2978C99.721 90.2678 99.971 99.6478 99.971 99.6478C99.971 99.6478 113.801 104.348 112.131 114.398C112.131 114.398 112.031 120.088 104.871 124.928C104.871 124.928 102.931 126.238 103.761 127.718C103.921 128.008 104.791 129.358 106.121 131.358C106.201 131.478 106.281 131.598 106.361 131.728C109.081 135.828 113.501 142.378 117.641 148.298C117.721 148.438 117.821 148.568 117.911 148.708C121.981 154.538 125.731 159.668 127.241 161.128C127.241 161.128 136.441 174.208 162.011 173.308C172.221 172.798 175.681 172.688 176.471 177.878C177.261 183.078 172.681 186.568 168.841 188.068C164.991 189.568 145.481 196.728 145.481 196.728C145.481 196.728 139.751 198.778 135.741 200.928C136.671 201.378 137.711 201.698 138.691 201.638C141.291 201.478 146.361 202.348 146.361 202.348C151.071 203.768 156.821 211.068 147.121 218.228C137.421 225.378 115.721 214.048 114.721 213.258C113.731 212.478 112.761 212.938 112.761 212.938C109.981 213.868 102.171 215.228 94.511 214.158" fill="#00B56D"/>
<path d="M105.51 146.747C108.84 147.317 113.34 147.847 117.79 148.307C126.06 149.157 134.12 149.727 134.12 149.727C145.83 149.347 144.34 140.937 144.34 140.937C143.69 134.017 135.07 133.217 135.07 133.217C135.07 133.217 133.52 133.027 123.04 131.917C115.21 131.087 109.85 131.067 106.23 131.327C101.05 131.687 99.5 132.657 99.5 132.657" fill="#00B56D"/>
<path d="M68.9492 111.218C68.9492 111.218 73.3392 105.158 82.1792 108.878" stroke="#1C1D1D" stroke-width="1.73" stroke-linecap="round" stroke-linejoin="round"/>
<path d="M111.962 81.5444L115.628 74.6999C116.706 72.683 119.437 72.2756 121.058 73.886C122.69 75.4961 122.294 78.219 120.278 79.3098L113.438 83.0073C112.488 83.5239 111.449 82.4924 111.951 81.5339L111.962 81.5444Z" fill="#BDDEFF"/>
<path d="M129.033 83.4165L134.517 77.9163C136.138 76.2951 138.861 76.6904 139.952 78.6963C141.042 80.713 139.892 83.1984 137.64 83.6674L130.02 85.252C128.964 85.4681 128.264 84.1771 129.022 83.4169L129.033 83.4165Z" fill="#BDDEFF"/>
<path d="M120.616 97.8101L126.977 93.357C128.846 92.0429 131.464 92.9076 132.191 95.0871C132.918 97.2558 131.338 99.5155 129.051 99.5842L121.283 99.8179C120.2 99.8396 119.735 98.4439 120.627 97.8206L120.616 97.8101Z" fill="#BDDEFF"/>
<path d="M88.0706 102.048L93.5206 104.338C95.1606 105.028 95.6706 107.098 94.5406 108.468C93.4106 109.838 91.2706 109.728 90.2806 108.258L86.9906 103.348C86.5006 102.618 87.2606 101.708 88.0706 102.048Z" fill="#CCE9FF"/>
<path d="M82.1906 95.2383L78.3906 97.1483C79.3806 97.0083 81.7106 97.1183 83.1506 98.7183" stroke="#1C1D1D" stroke-width="1.73" stroke-linecap="round" stroke-linejoin="round"/>
<path d="M66.7019 94.2275L69.9219 96.9975C69.0019 96.6175 66.7119 96.1675 64.9219 97.3675" stroke="#1C1D1D" stroke-width="1.73" stroke-linecap="round" stroke-linejoin="round"/>
<path d="M10.2008 112.208C10.8308 112.208 11.3508 111.698 11.3508 111.068C11.3508 110.438 10.8408 109.918 10.2008 109.918C9.56078 109.918 9.05078 110.428 9.05078 111.068C9.05078 111.708 9.56078 112.208 10.2008 112.208Z" fill="#09662F"/>
<path d="M16.5719 111.298C17.2019 111.298 17.7219 110.788 17.7219 110.148C17.7219 109.508 17.2119 109.008 16.5719 109.008C15.9319 109.008 15.4219 109.518 15.4219 110.148C15.4219 110.778 15.9319 111.298 16.5719 111.298Z" fill="#09662F"/>
<path d="M76.8801 202.558C76.8801 202.558 57.8801 224.338 73.4301 230.088C73.4301 230.088 83.6701 234.148 94.3601 213.628C94.3601 213.628 82.4101 210.588 76.8901 202.558H76.8801Z" fill="#00BC70"/>
<path d="M61.1094 136.167C61.1094 136.167 63.0894 211.337 93.7694 214.057C93.7694 214.057 98.9194 214.727 102.529 214.467C102.529 214.467 119.789 194.377 91.7494 151.837C91.7494 151.837 78.9694 132.237 61.1094 136.167Z" fill="#54C48C"/>
<path d="M80.8398 207.938C80.8398 207.938 84.4998 211.877 93.3198 213.707" stroke="#2BA369" stroke-width="1.7" stroke-miterlimit="10" stroke-linecap="round"/>
<path d="M134.942 200.728C134.942 200.728 131.332 200.298 129.422 198.658" stroke="#2BA369" stroke-width="1.7" stroke-miterlimit="10" stroke-linecap="round"/>
</svg>
